<?xml version="1.0" encoding="iso-8859-1"?>
<!-- Uploaded to: SVG Repo, www.svgrepo.com, Generator: SVG Repo Mixer Tools -->
<svg fill="#000000" height="800px" width="800px" version="1.1" id="Layer_1" xmlns="http://www.w3.org/2000/svg" xmlns:xlink="http://www.w3.org/1999/xlink" 
	 viewBox="0 0 511.999 511.999" xml:space="preserve">
<g>
	<g>
		<path d="M437.018,74.981C388.667,26.629,324.38,0,256,0c-0.093,0-0.186,0.003-0.279,0.003c-0.089,0-0.178-0.003-0.268-0.003
			c-0.059,0-0.116,0.007-0.173,0.009c-68.111,0.187-132.117,26.79-180.3,74.972C26.629,123.332,0,187.62,0,256
			s26.629,132.668,74.98,181.019c47.386,47.386,110.079,73.89,176.928,74.931c1.178,0.031,2.359,0.049,3.545,0.049
			c0.03,0,0.06-0.004,0.09-0.005c0.152,0,0.304,0.005,0.456,0.005c68.38,0,132.668-26.629,181.018-74.981
			c48.353-48.351,74.981-112.639,74.981-181.018S485.371,123.332,437.018,74.981z M15.208,256
			c0-132.682,107.871-240.64,240.518-240.789c64.165,0.149,116.321,52.392,116.321,116.591c0,64.29-52.304,116.594-116.594,116.594
			c-72.676,0-131.802,59.125-131.802,131.802c0,40.549,18.411,76.874,47.307,101.071C80.03,446.827,15.208,358.848,15.208,256z
			 M256,496.792c-1.265,0-2.523-0.028-3.784-0.048c-62.799-1.72-113.357-53.339-113.357-116.547
			c0-64.29,52.304-116.594,116.594-116.594c72.677,0,131.802-59.125,131.802-131.802c0-40.975-18.796-77.64-48.217-101.833
			C431.019,63.867,496.791,152.395,496.791,256C496.791,388.773,388.773,496.792,256,496.792z"/>
	</g>
</g>
<g>
	<g>
		<path d="M256.003,344.964c-19.428,0-35.234,15.806-35.234,35.234s15.806,35.234,35.234,35.234
			c19.428,0,35.234-15.806,35.234-35.234S275.431,344.964,256.003,344.964z M256.003,400.223c-11.043,0-20.026-8.983-20.026-20.026
			s8.983-20.026,20.026-20.026s20.026,8.983,20.026,20.026S267.045,400.223,256.003,400.223z"/>
	</g>
</g>
<g>
	<g>
		<path d="M256.003,107.632c-19.428,0-35.234,15.806-35.234,35.234s15.806,35.234,35.234,35.234
			c19.428,0,35.234-15.806,35.234-35.234S275.43,107.632,256.003,107.632z M256.003,162.892c-11.043,0-20.026-8.983-20.026-20.026
			s8.984-20.026,20.026-20.026c11.043,0,20.026,8.983,20.026,20.026S267.046,162.892,256.003,162.892z"/>
	</g>
</g>
</svg>