<svg transform="scale(1)" version="1.1" id="_x30_812_x5F_Feeling_x5F_Lonely_x5F_1" xmlns="http://www.w3.org/2000/svg" xmlns:xlink="http://www.w3.org/1999/xlink" x="0px" y="0px" width="500px" height="500px" viewBox="0 0 500 500" xml:space="preserve" class="show_show__wrapper__graphic__5Waiy "><title>React</title><style type="text/css">
	.st0{fill:#32ffbb;}
	.st1{fill:#009679;}
	.st2{fill:#000001;}
	.st3{fill:#FFFFFF;}
	.st4{fill:#34f5af;}
</style><g id="items"><g id="item-6"><path class="st0" d="M101.2,318.26h4.6l12.38-93.44l57.88-0.01l4.66,35.1c0,0-2.5-1.77-2.59-1.68
			c-6.05-3.74-13.22-5.16-20.27-6.07c-8.41-1.08-17.01-1.51-25.24,0.23c-6.64,1.64-13.44,3.36-19.11,7.2l-0.42,4.72
			c0,0,5.3-3.23,5.23-3.19c4.74-2.1,9.9-3.02,15.04-3.67c5-0.63,10.03-1.01,15.34-1.24c5.68,0.41,11.38,0.87,16.96,2.03
			c5.58,1.17,11.06,3.07,15.83,6.18l7.35,54.03l4.24-0.04c0,0-10.49-93.63-10.43-93.67c0.54,0.07,1.11-0.02,1.59-0.31
			c0.47-0.28,0.83-0.75,0.96-1.28c0.15-0.65-0.06-1.37-0.54-1.83c-0.41-0.39-0.97-0.58-1.51-0.74c0,0-72.24,0.16-72.41,0.13
			c-0.57,0.1-1.19,0.22-1.57,0.66c-0.29,0.33-0.39,0.79-0.38,1.22c0.01,0.3,0.06,0.6,0.21,0.86c0.19,0.32,0.5,0.54,0.82,0.73
			c0.59,0.34,1.22,0.59,1.89,0.74L101.2,318.26z"></path><path class="st1" d="M109.49,220.92c-2.12-2-3.17-5.01-2.96-7.91c0.21-2.9,1.63-5.67,3.72-8.35c-1.35-18.35-2.39-37.33,3.85-54.63
			c3.01-8.34,7.86-16.29,15.16-21.31c9.51-6.55,22.76-7.19,32.86-1.59c7.86,4.36,13.54,12,16.95,20.31
			c3.41,8.32,4.75,17.33,5.57,26.28c0.94,10.27,1.22,20.69-0.72,31.04c3.49,3.08,4.99,8.25,3.7,12.72
			c-0.34,1.18-0.89,2.35-1.85,3.12c-0.23,0.18-0.49,0.35-0.78,0.38c-0.75,0.09-1.57-0.65-2.19-0.22L109.49,220.92z"></path><path class="st2" d="M183.26,225.11h-72.53c-1.32,0-2.39-1.07-2.39-2.39s1.07-2.39,2.39-2.39h72.53c1.32,0,2.39,1.07,2.39,2.39
			S184.58,225.11,183.26,225.11z M110.73,221.12c-0.88,0-1.59,0.72-1.59,1.59c0,0.88,0.71,1.59,1.59,1.59h72.53
			c0.88,0,1.59-0.72,1.59-1.59c0-0.88-0.71-1.59-1.59-1.59H110.73z"></path><path class="st2" d="M105.8,318.81h-4.66c-0.11,0-0.22-0.05-0.3-0.13c-0.08-0.08-0.11-0.2-0.1-0.31l10.61-93.11
			c0.02-0.22,0.22-0.38,0.44-0.35c0.22,0.02,0.38,0.22,0.35,0.44l-10.56,92.67h3.87l12.26-93.04c0.03-0.22,0.22-0.37,0.45-0.34
			c0.22,0.03,0.37,0.23,0.34,0.45l-12.31,93.39C106.17,318.66,106,318.81,105.8,318.81z"></path><path class="st2" d="M193.15,318.75h-4.4c-0.2,0-0.37-0.15-0.4-0.34l-12.73-93.65c-0.03-0.22,0.12-0.42,0.34-0.45
			c0.22-0.03,0.42,0.12,0.45,0.34l12.68,93.3h3.6l-10.44-92.74c-0.02-0.22,0.13-0.42,0.35-0.44c0.22-0.02,0.42,0.13,0.44,0.35
			l10.49,93.19c0.01,0.11-0.02,0.23-0.1,0.31C193.37,318.7,193.27,318.75,193.15,318.75z"></path><path class="st2" d="M113.21,264.83c-0.12,0-0.23-0.05-0.31-0.15c-0.14-0.17-0.11-0.42,0.06-0.56c5.65-4.63,13.13-6.16,19.69-7.04
			c16.25-2.2,30.56-1.03,42.54,3.48c2,0.75,4.3,1.73,6.21,3.28c0.17,0.14,0.2,0.39,0.06,0.56c-0.14,0.17-0.39,0.2-0.56,0.06
			c-1.82-1.48-4.04-2.43-5.98-3.16c-11.86-4.46-26.04-5.61-42.16-3.43c-6.45,0.87-13.79,2.37-19.29,6.87
			C113.39,264.8,113.3,264.83,113.21,264.83z"></path><path class="st2" d="M180.46,260.21c-0.09,0-0.17-0.03-0.25-0.08c-6.02-4.73-13.84-6.41-19.98-7.35
			c-8.71-1.33-16.49-1.52-23.78-0.61c-8.42,1.06-15.95,3.6-22.39,7.55c-0.19,0.12-0.43,0.06-0.55-0.13
			c-0.12-0.19-0.06-0.43,0.13-0.55c6.53-4.01,14.17-6.59,22.71-7.66c7.37-0.93,15.22-0.73,24,0.61c6.23,0.95,14.18,2.66,20.35,7.51
			c0.17,0.14,0.2,0.39,0.07,0.56C180.69,260.16,180.58,260.21,180.46,260.21z"></path><path class="st2" d="M176.53,212.5c-1.1,0-2.21-0.1-3.29-0.36c-1.04-0.26-2.03-0.66-3-1.06c-1.35-0.55-2.62-1.06-3.99-1.21
			c-2.07-0.22-4.05,0.42-6.15,1.1c-1.75,0.57-3.56,1.15-5.43,1.19c-1.74,0.04-3.44-0.4-5.08-0.82c-1.41-0.36-2.87-0.73-4.32-0.79
			c-1.47-0.06-2.98,0.21-4.44,0.47c-1.92,0.34-3.9,0.7-5.87,0.34c-1.28-0.23-2.49-0.75-3.66-1.25c-1.35-0.58-2.62-1.13-4-1.27
			c-2.34-0.23-4.64,0.77-6.87,1.73c-0.32,0.14-0.64,0.28-0.96,0.41c-2.28,0.97-5.63,2.08-8.45,0.65c-0.2-0.1-0.27-0.34-0.17-0.54
			c0.1-0.2,0.34-0.27,0.54-0.17c2.52,1.28,5.65,0.23,7.78-0.67c0.32-0.13,0.63-0.27,0.95-0.41c2.32-1.01,4.72-2.05,7.27-1.79
			c1.5,0.15,2.89,0.75,4.24,1.33c1.13,0.49,2.29,0.99,3.48,1.2c1.83,0.33,3.66,0,5.59-0.34c1.5-0.27,3.05-0.54,4.61-0.48
			c1.53,0.06,3.03,0.44,4.48,0.81c1.66,0.43,3.24,0.82,4.87,0.79c1.75-0.04,3.51-0.61,5.2-1.16c2.09-0.68,4.24-1.38,6.48-1.13
			c1.48,0.16,2.86,0.72,4.2,1.27c0.94,0.38,1.91,0.78,2.89,1.02c2.53,0.62,5.18,0.27,7.75-0.06c0.22-0.03,0.42,0.13,0.45,0.34
			c0.03,0.22-0.12,0.42-0.34,0.45C179.78,212.29,178.16,212.5,176.53,212.5z"></path><path class="st2" d="M110.99,205.29c-0.13,0-0.27-0.07-0.34-0.19c-0.11-0.19-0.06-0.43,0.13-0.55c9.96-6.08,22.36-6.6,33.21-6.61
			c12.51-0.01,26.92,0.45,39.87,6.14c0.2,0.09,0.29,0.32,0.2,0.53c-0.09,0.2-0.32,0.29-0.52,0.2c-12.81-5.63-27.13-6.09-39.55-6.08
			c-10.74,0.01-23.01,0.53-32.8,6.5C111.13,205.28,111.06,205.29,110.99,205.29z"></path></g><g id="item-5"><path class="st0" d="M306.83,318.26h4.6l12.38-93.44l57.88-0.01l4.66,35.1c0,0-2.5-1.77-2.59-1.68
			c-6.05-3.74-13.22-5.16-20.27-6.07c-8.41-1.08-17.01-1.51-25.24,0.23c-6.64,1.64-13.44,3.36-19.11,7.2l-0.42,4.72
			c0,0,5.3-3.23,5.23-3.19c4.74-2.1,9.9-3.02,15.04-3.67c5-0.63,10.03-1.01,15.34-1.24c5.68,0.41,11.38,0.87,16.96,2.03
			c5.58,1.17,11.06,3.07,15.83,6.18l7.35,54.03l4.24-0.04c0,0-10.49-93.63-10.43-93.67c0.54,0.07,1.11-0.02,1.59-0.31
			c0.47-0.28,0.83-0.75,0.96-1.28c0.15-0.65-0.06-1.37-0.54-1.83c-0.41-0.39-0.97-0.58-1.51-0.74c0,0-72.24,0.16-72.41,0.13
			c-0.57,0.1-1.19,0.22-1.57,0.66c-0.29,0.33-0.39,0.79-0.38,1.22c0.01,0.3,0.06,0.6,0.21,0.86c0.19,0.32,0.5,0.54,0.82,0.73
			c0.59,0.34,1.22,0.59,1.89,0.74L306.83,318.26z"></path><path class="st1" d="M315.12,220.92c-2.12-2-3.17-5.01-2.96-7.91c0.21-2.9,1.63-5.67,3.72-8.35c-1.35-18.35-2.39-37.33,3.85-54.63
			c3.01-8.34,7.86-16.29,15.16-21.31c9.51-6.55,22.76-7.19,32.86-1.59c7.86,4.36,13.54,12,16.95,20.31
			c3.41,8.32,4.75,17.33,5.57,26.28c0.94,10.27,1.22,20.69-0.72,31.04c3.49,3.08,4.99,8.25,3.7,12.72
			c-0.34,1.18-0.89,2.35-1.85,3.12c-0.23,0.18-0.49,0.35-0.78,0.38c-0.75,0.09-1.57-0.65-2.19-0.22L315.12,220.92z"></path><path class="st2" d="M388.9,225.11h-72.53c-1.32,0-2.39-1.07-2.39-2.39s1.07-2.39,2.39-2.39h72.53c1.32,0,2.39,1.07,2.39,2.39
			S390.21,225.11,388.9,225.11z M316.37,221.12c-0.88,0-1.59,0.72-1.59,1.59c0,0.88,0.71,1.59,1.59,1.59h72.53
			c0.88,0,1.59-0.72,1.59-1.59c0-0.88-0.71-1.59-1.59-1.59H316.37z"></path><path class="st2" d="M311.43,318.81h-4.66c-0.11,0-0.22-0.05-0.3-0.13s-0.11-0.2-0.1-0.31l10.61-93.11
			c0.02-0.22,0.22-0.38,0.44-0.35c0.22,0.02,0.38,0.22,0.35,0.44l-10.56,92.67h3.87l12.26-93.04c0.03-0.22,0.22-0.37,0.45-0.34
			c0.22,0.03,0.37,0.23,0.34,0.45l-12.31,93.39C311.8,318.66,311.63,318.81,311.43,318.81z"></path><path class="st2" d="M398.78,318.75h-4.4c-0.2,0-0.37-0.15-0.39-0.34l-12.73-93.65c-0.03-0.22,0.12-0.42,0.34-0.45
			c0.22-0.03,0.42,0.12,0.45,0.34l12.68,93.3h3.6l-10.44-92.74c-0.02-0.22,0.13-0.42,0.35-0.44c0.22-0.02,0.42,0.13,0.44,0.35
			l10.49,93.19c0.01,0.11-0.02,0.23-0.1,0.31C399.01,318.7,398.9,318.75,398.78,318.75z"></path><path class="st2" d="M318.84,264.83c-0.12,0-0.23-0.05-0.31-0.15c-0.14-0.17-0.11-0.42,0.06-0.56c5.65-4.63,13.13-6.16,19.69-7.04
			c16.25-2.2,30.56-1.03,42.54,3.48c2,0.75,4.3,1.73,6.21,3.28c0.17,0.14,0.2,0.39,0.06,0.56c-0.14,0.17-0.39,0.2-0.56,0.06
			c-1.82-1.48-4.04-2.43-5.98-3.16c-11.86-4.46-26.04-5.61-42.16-3.43c-6.45,0.87-13.79,2.37-19.29,6.87
			C319.02,264.8,318.93,264.83,318.84,264.83z"></path><path class="st2" d="M386.09,260.21c-0.09,0-0.17-0.03-0.25-0.08c-6.02-4.73-13.84-6.41-19.98-7.35
			c-8.71-1.33-16.49-1.52-23.78-0.61c-8.42,1.06-15.95,3.6-22.39,7.55c-0.19,0.12-0.43,0.06-0.55-0.13
			c-0.12-0.19-0.06-0.43,0.13-0.55c6.53-4.01,14.17-6.59,22.71-7.66c7.37-0.93,15.22-0.73,24,0.61c6.23,0.95,14.18,2.66,20.35,7.51
			c0.17,0.14,0.2,0.39,0.07,0.56C386.32,260.16,386.21,260.21,386.09,260.21z"></path><path class="st2" d="M382.16,212.5c-1.1,0-2.21-0.1-3.29-0.36c-1.04-0.26-2.04-0.66-3-1.06c-1.35-0.55-2.62-1.06-3.99-1.21
			c-2.07-0.22-4.05,0.42-6.15,1.1c-1.75,0.57-3.56,1.15-5.43,1.19c-1.74,0.04-3.44-0.4-5.08-0.82c-1.41-0.36-2.87-0.73-4.32-0.79
			c-1.47-0.06-2.98,0.21-4.44,0.47c-1.92,0.34-3.9,0.7-5.87,0.34c-1.28-0.23-2.49-0.75-3.66-1.25c-1.35-0.58-2.62-1.13-4-1.27
			c-2.34-0.23-4.64,0.77-6.87,1.73c-0.32,0.14-0.64,0.28-0.96,0.41c-2.28,0.97-5.63,2.08-8.45,0.65c-0.2-0.1-0.27-0.34-0.17-0.54
			c0.1-0.2,0.34-0.27,0.54-0.17c2.52,1.28,5.65,0.23,7.78-0.67c0.32-0.13,0.63-0.27,0.95-0.41c2.32-1.01,4.72-2.05,7.27-1.79
			c1.5,0.15,2.89,0.75,4.24,1.33c1.13,0.49,2.29,0.99,3.48,1.2c1.83,0.33,3.66,0,5.59-0.34c1.5-0.27,3.05-0.54,4.61-0.48
			c1.53,0.06,3.03,0.44,4.48,0.81c1.66,0.43,3.24,0.82,4.87,0.79c1.75-0.04,3.51-0.61,5.2-1.16c2.09-0.68,4.24-1.38,6.48-1.13
			c1.48,0.16,2.86,0.72,4.2,1.27c0.94,0.38,1.91,0.78,2.89,1.02c2.53,0.62,5.18,0.27,7.75-0.06c0.22-0.03,0.42,0.13,0.45,0.34
			c0.03,0.22-0.12,0.42-0.34,0.45C385.41,212.29,383.79,212.5,382.16,212.5z"></path><path class="st2" d="M316.62,205.29c-0.13,0-0.27-0.07-0.34-0.19c-0.11-0.19-0.06-0.43,0.13-0.55c9.96-6.08,22.36-6.6,33.21-6.61
			c12.51-0.01,26.92,0.45,39.87,6.14c0.2,0.09,0.29,0.32,0.2,0.53c-0.09,0.2-0.32,0.29-0.52,0.2c-12.81-5.63-27.13-6.09-39.55-6.08
			c-10.74,0.01-23.01,0.53-32.8,6.5C316.76,205.28,316.69,205.29,316.62,205.29z"></path></g><g id="item-4"><path class="st0" d="M203.98,318.26h4.6l12.38-93.44l57.88-0.01l4.66,35.1c0,0-2.5-1.77-2.59-1.68
			c-6.05-3.74-13.22-5.16-20.27-6.07c-8.41-1.08-17.01-1.51-25.24,0.23c-6.64,1.64-13.44,3.36-19.11,7.2l-0.42,4.72
			c0,0,5.3-3.23,5.23-3.19c4.74-2.1,9.9-3.02,15.04-3.67c5-0.63,10.03-1.01,15.34-1.24c5.68,0.41,11.38,0.87,16.96,2.03
			c5.58,1.17,11.06,3.07,15.83,6.18l7.35,54.03l4.24-0.04c0,0-10.49-93.63-10.43-93.67c0.54,0.07,1.11-0.02,1.59-0.31
			c0.47-0.28,0.83-0.75,0.96-1.28c0.15-0.65-0.06-1.37-0.54-1.83c-0.41-0.39-0.97-0.58-1.51-0.74c0,0-72.24,0.16-72.41,0.13
			c-0.57,0.1-1.19,0.22-1.57,0.66c-0.29,0.33-0.39,0.79-0.38,1.22c0.01,0.3,0.06,0.6,0.21,0.86c0.19,0.32,0.5,0.54,0.82,0.73
			c0.59,0.34,1.22,0.59,1.89,0.74L203.98,318.26z"></path><path class="st1" d="M212.27,220.92c-2.12-2-3.17-5.01-2.96-7.91c0.21-2.9,1.63-5.67,3.72-8.35c-1.35-18.35-2.39-37.33,3.85-54.63
			c3.01-8.34,7.86-16.29,15.16-21.31c9.51-6.55,22.76-7.19,32.86-1.59c7.86,4.36,13.54,12,16.95,20.31
			c3.41,8.32,4.75,17.33,5.57,26.28c0.94,10.27,1.22,20.69-0.72,31.04c3.49,3.08,4.99,8.25,3.7,12.72
			c-0.34,1.18-0.89,2.35-1.85,3.12c-0.23,0.18-0.49,0.35-0.78,0.38c-0.75,0.09-1.57-0.65-2.19-0.22L212.27,220.92z"></path><path class="st2" d="M286.05,225.11h-72.53c-1.32,0-2.39-1.07-2.39-2.39s1.07-2.39,2.39-2.39h72.53c1.32,0,2.39,1.07,2.39,2.39
			S287.37,225.11,286.05,225.11z M213.52,221.12c-0.88,0-1.59,0.72-1.59,1.59c0,0.88,0.71,1.59,1.59,1.59h72.53
			c0.88,0,1.59-0.72,1.59-1.59c0-0.88-0.71-1.59-1.59-1.59H213.52z"></path><path class="st2" d="M208.58,318.81h-4.66c-0.11,0-0.22-0.05-0.3-0.13s-0.11-0.2-0.1-0.31l10.61-93.11
			c0.02-0.22,0.22-0.38,0.44-0.35c0.22,0.02,0.38,0.22,0.35,0.44l-10.56,92.67h3.87l12.26-93.04c0.03-0.22,0.22-0.37,0.45-0.34
			c0.22,0.03,0.37,0.23,0.34,0.45l-12.31,93.39C208.95,318.66,208.78,318.81,208.58,318.81z"></path><path class="st2" d="M295.94,318.75h-4.4c-0.2,0-0.37-0.15-0.4-0.34l-12.73-93.65c-0.03-0.22,0.12-0.42,0.34-0.45
			c0.22-0.03,0.42,0.12,0.45,0.34l12.68,93.3h3.6l-10.44-92.74c-0.02-0.22,0.13-0.42,0.35-0.44c0.22-0.02,0.42,0.13,0.44,0.35
			l10.49,93.19c0.01,0.11-0.02,0.23-0.1,0.31C296.16,318.7,296.05,318.75,295.94,318.75z"></path><path class="st2" d="M215.99,264.83c-0.12,0-0.23-0.05-0.31-0.15c-0.14-0.17-0.11-0.42,0.06-0.56c5.65-4.63,13.13-6.16,19.69-7.04
			c16.25-2.2,30.56-1.03,42.54,3.48c2,0.75,4.3,1.73,6.21,3.28c0.17,0.14,0.2,0.39,0.06,0.56c-0.14,0.17-0.39,0.2-0.56,0.06
			c-1.82-1.48-4.04-2.43-5.98-3.16c-11.86-4.46-26.04-5.61-42.16-3.43c-6.45,0.87-13.79,2.37-19.29,6.87
			C216.17,264.8,216.08,264.83,215.99,264.83z"></path><path class="st2" d="M283.24,260.21c-0.09,0-0.17-0.03-0.25-0.08c-6.02-4.73-13.84-6.41-19.98-7.35
			c-8.71-1.33-16.49-1.52-23.78-0.61c-8.42,1.06-15.95,3.6-22.39,7.55c-0.19,0.12-0.43,0.06-0.55-0.13
			c-0.12-0.19-0.06-0.43,0.13-0.55c6.53-4.01,14.17-6.59,22.71-7.66c7.37-0.93,15.22-0.73,24,0.61c6.23,0.95,14.18,2.66,20.35,7.51
			c0.17,0.14,0.2,0.39,0.07,0.56C283.48,260.16,283.36,260.21,283.24,260.21z"></path><path class="st2" d="M279.31,212.5c-1.1,0-2.21-0.1-3.29-0.36c-1.04-0.26-2.03-0.66-3-1.06c-1.35-0.55-2.62-1.06-3.99-1.21
			c-2.07-0.22-4.05,0.42-6.15,1.1c-1.75,0.57-3.56,1.15-5.43,1.19c-1.74,0.04-3.44-0.4-5.08-0.82c-1.41-0.36-2.87-0.73-4.32-0.79
			c-1.47-0.06-2.98,0.21-4.44,0.47c-1.92,0.34-3.9,0.7-5.87,0.34c-1.28-0.23-2.49-0.75-3.66-1.25c-1.35-0.58-2.62-1.13-4-1.27
			c-2.34-0.23-4.64,0.77-6.87,1.73c-0.32,0.14-0.64,0.28-0.96,0.41c-2.28,0.97-5.63,2.08-8.45,0.65c-0.2-0.1-0.27-0.34-0.17-0.54
			c0.1-0.2,0.34-0.27,0.54-0.17c2.52,1.28,5.65,0.23,7.78-0.67c0.32-0.13,0.63-0.27,0.95-0.41c2.32-1.01,4.72-2.05,7.27-1.79
			c1.5,0.15,2.89,0.75,4.24,1.33c1.13,0.49,2.29,0.99,3.48,1.2c1.83,0.33,3.66,0,5.59-0.34c1.5-0.27,3.05-0.54,4.61-0.48
			c1.53,0.06,3.03,0.44,4.48,0.81c1.66,0.43,3.24,0.82,4.87,0.79c1.75-0.04,3.51-0.61,5.2-1.16c2.09-0.68,4.24-1.38,6.48-1.13
			c1.48,0.16,2.86,0.72,4.2,1.27c0.94,0.38,1.91,0.78,2.89,1.02c2.53,0.62,5.18,0.27,7.75-0.06c0.22-0.03,0.42,0.13,0.45,0.34
			c0.03,0.22-0.12,0.42-0.34,0.45C282.56,212.29,280.94,212.5,279.31,212.5z"></path><path class="st2" d="M213.77,205.29c-0.13,0-0.27-0.07-0.34-0.19c-0.11-0.19-0.06-0.43,0.13-0.55c9.96-6.08,22.36-6.6,33.21-6.61
			c12.51-0.01,26.92,0.45,39.87,6.14c0.2,0.09,0.29,0.32,0.2,0.53c-0.09,0.2-0.32,0.29-0.52,0.2c-12.81-5.63-27.13-6.09-39.55-6.08
			c-10.74,0.01-23.01,0.53-32.8,6.5C213.91,205.28,213.84,205.29,213.77,205.29z"></path></g><g id="item-3"><path class="st0" d="M63.35,402.42h5.78l15.53-117.24l72.62-0.02l5.84,44.04c0,0-3.14-2.22-3.25-2.1
			c-7.59-4.69-16.59-6.48-25.44-7.62c-10.55-1.35-21.34-1.9-31.67,0.29c-8.34,2.06-16.87,4.21-23.97,9.03l-0.53,5.92
			c0,0,6.65-4.05,6.57-4c5.94-2.63,12.42-3.79,18.87-4.6c6.28-0.79,12.59-1.27,19.25-1.56c7.13,0.52,14.28,1.09,21.28,2.55
			s13.88,3.85,19.87,7.76l9.23,67.78l5.32-0.05c0,0-13.16-117.48-13.09-117.52c0.68,0.09,1.4-0.03,1.99-0.38
			c0.59-0.35,1.05-0.94,1.21-1.61c0.19-0.81-0.07-1.71-0.67-2.29c-0.51-0.49-1.21-0.73-1.9-0.93c0,0-90.64,0.21-90.85,0.16
			c-0.71,0.12-1.49,0.28-1.96,0.83c-0.36,0.41-0.49,0.98-0.47,1.53c0.01,0.37,0.08,0.75,0.27,1.07c0.23,0.4,0.63,0.68,1.03,0.91
			c0.73,0.43,1.54,0.74,2.37,0.92L63.35,402.42z"></path><path class="st1" d="M73.75,280.29c-2.66-2.51-3.98-6.29-3.72-9.93s2.04-7.11,4.67-10.47c-1.69-23.02-3-46.83,4.83-68.55
			c3.77-10.46,9.87-20.44,19.02-26.74c11.93-8.22,28.55-9.02,41.22-2c9.86,5.47,16.98,15.05,21.27,25.49
			c4.28,10.43,5.96,21.74,6.99,32.97c1.18,12.88,1.54,25.96-0.9,38.95c4.38,3.87,6.27,10.35,4.64,15.96
			c-0.43,1.48-1.12,2.94-2.32,3.91c-0.29,0.23-0.61,0.43-0.97,0.48c-0.94,0.12-1.97-0.82-2.75-0.27L73.75,280.29z"></path><path class="st2" d="M166.32,285.54h-91c-1.65,0-3-1.35-3-3s1.35-3,3-3h91c1.65,0,3,1.35,3,3S167.97,285.54,166.32,285.54z
			 M75.32,280.54c-1.1,0-2,0.9-2,2s0.9,2,2,2h91c1.1,0,2-0.9,2-2s-0.9-2-2-2H75.32z"></path><path class="st2" d="M69.12,403.11h-5.85c-0.14,0-0.28-0.06-0.37-0.17s-0.14-0.25-0.12-0.39l13.32-116.82
			c0.03-0.27,0.28-0.47,0.55-0.44c0.27,0.03,0.47,0.28,0.44,0.55L63.83,402.11h4.85l15.38-116.74c0.04-0.27,0.28-0.47,0.56-0.43
			c0.27,0.04,0.47,0.29,0.43,0.56L69.62,402.67C69.59,402.92,69.37,403.11,69.12,403.11z"></path><path class="st2" d="M178.73,403.03h-5.52c-0.25,0-0.46-0.18-0.5-0.43l-15.97-117.5c-0.04-0.27,0.15-0.53,0.43-0.56
			c0.27-0.04,0.53,0.15,0.56,0.43l15.91,117.06h4.52l-13.1-116.36c-0.03-0.27,0.17-0.52,0.44-0.55c0.27-0.03,0.52,0.17,0.55,0.44
			l13.16,116.92c0.02,0.14-0.03,0.28-0.12,0.39C179,402.97,178.87,403.03,178.73,403.03z"></path><path class="st2" d="M78.42,335.38c-0.15,0-0.29-0.06-0.39-0.18c-0.18-0.21-0.14-0.53,0.07-0.7c7.09-5.8,16.47-7.73,24.7-8.84
			c20.38-2.76,38.34-1.29,53.38,4.36c2.51,0.94,5.4,2.17,7.79,4.12c0.21,0.17,0.25,0.49,0.07,0.7c-0.17,0.21-0.49,0.25-0.7,0.07
			c-2.28-1.86-5.07-3.04-7.51-3.96c-14.88-5.59-32.68-7.04-52.89-4.31c-8.1,1.09-17.3,2.98-24.2,8.62
			C78.65,335.34,78.54,335.38,78.42,335.38z"></path><path class="st2" d="M162.8,329.59c-0.11,0-0.22-0.04-0.31-0.11c-7.55-5.94-17.36-8.05-25.06-9.22
			c-10.93-1.66-20.69-1.91-29.84-0.76c-10.57,1.33-20.02,4.52-28.09,9.47c-0.24,0.15-0.54,0.07-0.69-0.16
			c-0.14-0.24-0.07-0.54,0.16-0.69c8.2-5.03,17.78-8.27,28.49-9.62c9.25-1.16,19.1-0.91,30.12,0.76c7.82,1.19,17.79,3.34,25.53,9.42
			c0.22,0.17,0.25,0.49,0.08,0.7C163.09,329.52,162.95,329.59,162.8,329.59z"></path><path class="st2" d="M157.87,269.73c-1.38,0-2.77-0.12-4.13-0.46c-1.3-0.32-2.55-0.83-3.76-1.32c-1.69-0.69-3.28-1.34-5-1.52
			c-2.6-0.28-5.08,0.53-7.72,1.38c-2.2,0.71-4.47,1.45-6.81,1.5c-2.18,0.05-4.31-0.5-6.38-1.02c-1.77-0.45-3.6-0.92-5.42-0.99
			c-1.84-0.07-3.74,0.27-5.57,0.59c-2.41,0.43-4.89,0.87-7.37,0.43c-1.61-0.29-3.13-0.94-4.59-1.57c-1.69-0.73-3.29-1.42-5.02-1.59
			c-2.94-0.29-5.83,0.96-8.62,2.17c-0.4,0.18-0.8,0.35-1.2,0.52c-2.86,1.21-7.06,2.61-10.6,0.81c-0.25-0.12-0.34-0.43-0.22-0.67
			c0.12-0.25,0.42-0.34,0.67-0.22c3.16,1.61,7.08,0.29,9.76-0.84c0.4-0.17,0.79-0.34,1.19-0.52c2.91-1.27,5.92-2.58,9.12-2.25
			c1.89,0.19,3.63,0.94,5.32,1.67c1.41,0.61,2.87,1.24,4.37,1.51c2.29,0.41,4.59,0,7.01-0.43c1.88-0.33,3.83-0.68,5.78-0.61
			c1.92,0.07,3.81,0.56,5.63,1.02c2.09,0.54,4.06,1.03,6.1,0.99c2.2-0.05,4.4-0.76,6.53-1.45c2.62-0.85,5.32-1.73,8.13-1.42
			c1.86,0.2,3.59,0.91,5.27,1.59c1.18,0.48,2.4,0.98,3.63,1.28c3.17,0.78,6.5,0.34,9.72-0.08c0.28-0.04,0.52,0.16,0.56,0.43
			c0.04,0.27-0.16,0.53-0.43,0.56C161.95,269.46,159.91,269.73,157.87,269.73z"></path><path class="st2" d="M75.64,260.69c-0.17,0-0.33-0.08-0.43-0.24c-0.14-0.24-0.07-0.54,0.17-0.69c12.49-7.63,28.06-8.28,41.67-8.3
			c15.69-0.01,33.78,0.56,50.03,7.71c0.25,0.11,0.37,0.41,0.26,0.66c-0.11,0.25-0.41,0.37-0.66,0.26
			c-16.07-7.07-34.04-7.64-49.62-7.62c-13.47,0.02-28.88,0.66-41.15,8.15C75.81,260.66,75.72,260.69,75.64,260.69z"></path></g><g id="item-2"><path class="st0" d="M321.35,402.42h5.78l15.53-117.24l72.62-0.02l5.84,44.04c0,0-3.14-2.22-3.25-2.1
			c-7.59-4.69-16.59-6.48-25.44-7.62c-10.55-1.35-21.34-1.9-31.67,0.29c-8.34,2.06-16.87,4.21-23.97,9.03l-0.53,5.92
			c0,0,6.65-4.05,6.57-4c5.94-2.63,12.42-3.79,18.87-4.6c6.28-0.79,12.59-1.27,19.25-1.56c7.13,0.52,14.28,1.09,21.28,2.55
			s13.88,3.85,19.87,7.76l9.23,67.78l5.32-0.05c0,0-13.16-117.48-13.09-117.52c0.68,0.09,1.4-0.03,1.99-0.38
			c0.59-0.35,1.05-0.94,1.21-1.61c0.19-0.81-0.07-1.71-0.67-2.29c-0.51-0.49-1.21-0.73-1.9-0.93c0,0-90.64,0.21-90.85,0.16
			c-0.71,0.12-1.49,0.28-1.96,0.83c-0.36,0.41-0.49,0.98-0.47,1.53c0.01,0.37,0.08,0.75,0.27,1.07c0.23,0.4,0.63,0.68,1.03,0.91
			c0.73,0.43,1.54,0.74,2.37,0.92L321.35,402.42z"></path><path class="st1" d="M331.75,280.29c-2.66-2.51-3.98-6.29-3.72-9.93s2.04-7.11,4.67-10.47c-1.69-23.02-3-46.83,4.83-68.55
			c3.77-10.46,9.87-20.44,19.02-26.74c11.93-8.22,28.55-9.02,41.22-2c9.86,5.47,16.98,15.05,21.27,25.49
			c4.28,10.43,5.96,21.74,6.99,32.97c1.18,12.88,1.54,25.96-0.9,38.95c4.38,3.87,6.27,10.35,4.64,15.96
			c-0.43,1.48-1.12,2.94-2.32,3.91c-0.29,0.23-0.61,0.43-0.97,0.48c-0.94,0.12-1.97-0.82-2.75-0.27L331.75,280.29z"></path><path class="st2" d="M424.32,285.54h-91c-1.65,0-3-1.35-3-3s1.35-3,3-3h91c1.65,0,3,1.35,3,3S425.97,285.54,424.32,285.54z
			 M333.32,280.54c-1.1,0-2,0.9-2,2s0.9,2,2,2h91c1.1,0,2-0.9,2-2s-0.9-2-2-2H333.32z"></path><path class="st2" d="M327.12,403.11h-5.85c-0.14,0-0.28-0.06-0.37-0.17s-0.14-0.25-0.12-0.39l13.32-116.82
			c0.03-0.27,0.28-0.47,0.55-0.44c0.27,0.03,0.47,0.28,0.44,0.55l-13.25,116.27h4.85l15.38-116.74c0.04-0.27,0.28-0.47,0.56-0.43
			c0.27,0.04,0.47,0.29,0.43,0.56l-15.44,117.17C327.59,402.92,327.37,403.11,327.12,403.11z"></path><path class="st2" d="M436.73,403.03h-5.52c-0.25,0-0.46-0.18-0.5-0.43l-15.97-117.5c-0.04-0.27,0.15-0.53,0.43-0.56
			c0.27-0.04,0.53,0.15,0.56,0.43l15.91,117.06h4.52l-13.1-116.36c-0.03-0.27,0.17-0.52,0.44-0.55c0.27-0.03,0.52,0.17,0.55,0.44
			l13.16,116.92c0.02,0.14-0.03,0.28-0.12,0.39C437,402.97,436.87,403.03,436.73,403.03z"></path><path class="st2" d="M336.42,335.38c-0.15,0-0.29-0.06-0.39-0.18c-0.18-0.21-0.14-0.53,0.07-0.7c7.09-5.8,16.47-7.73,24.7-8.84
			c20.38-2.76,38.34-1.29,53.38,4.36c2.51,0.94,5.4,2.17,7.79,4.12c0.21,0.17,0.25,0.49,0.07,0.7c-0.17,0.21-0.49,0.25-0.7,0.07
			c-2.28-1.86-5.07-3.04-7.51-3.96c-14.88-5.59-32.68-7.04-52.89-4.31c-8.1,1.09-17.3,2.98-24.2,8.62
			C336.65,335.34,336.54,335.38,336.42,335.38z"></path><path class="st2" d="M420.8,329.59c-0.11,0-0.22-0.04-0.31-0.11c-7.55-5.94-17.36-8.05-25.06-9.22
			c-10.93-1.66-20.69-1.91-29.84-0.76c-10.57,1.33-20.02,4.52-28.09,9.47c-0.24,0.15-0.54,0.07-0.69-0.16
			c-0.14-0.24-0.07-0.54,0.16-0.69c8.2-5.03,17.78-8.27,28.49-9.62c9.25-1.16,19.1-0.91,30.12,0.76c7.82,1.19,17.79,3.34,25.53,9.42
			c0.22,0.17,0.25,0.49,0.08,0.7C421.09,329.52,420.95,329.59,420.8,329.59z"></path><path class="st2" d="M415.87,269.73c-1.38,0-2.77-0.12-4.13-0.46c-1.3-0.32-2.55-0.83-3.76-1.32c-1.69-0.69-3.28-1.34-5-1.52
			c-2.6-0.28-5.08,0.53-7.72,1.38c-2.2,0.71-4.47,1.45-6.81,1.5c-2.18,0.05-4.31-0.5-6.38-1.02c-1.77-0.45-3.6-0.92-5.42-0.99
			c-1.84-0.07-3.74,0.27-5.57,0.59c-2.41,0.43-4.89,0.87-7.37,0.43c-1.61-0.29-3.13-0.94-4.59-1.57c-1.69-0.73-3.29-1.42-5.02-1.59
			c-2.94-0.29-5.83,0.96-8.62,2.17c-0.4,0.18-0.8,0.35-1.2,0.52c-2.86,1.21-7.06,2.61-10.6,0.81c-0.25-0.12-0.34-0.43-0.22-0.67
			c0.12-0.25,0.42-0.34,0.67-0.22c3.16,1.61,7.08,0.29,9.76-0.84c0.4-0.17,0.79-0.34,1.19-0.52c2.91-1.27,5.92-2.58,9.12-2.25
			c1.89,0.19,3.63,0.94,5.32,1.67c1.41,0.61,2.87,1.24,4.37,1.51c2.29,0.41,4.59,0,7.01-0.43c1.88-0.33,3.83-0.68,5.78-0.61
			c1.92,0.07,3.81,0.56,5.63,1.02c2.09,0.54,4.06,1.03,6.1,0.99c2.2-0.05,4.4-0.76,6.53-1.45c2.62-0.85,5.32-1.73,8.13-1.42
			c1.86,0.2,3.59,0.91,5.27,1.59c1.18,0.48,2.4,0.98,3.63,1.28c3.17,0.78,6.5,0.34,9.72-0.08c0.28-0.04,0.52,0.16,0.56,0.43
			c0.04,0.27-0.16,0.53-0.43,0.56C419.95,269.46,417.91,269.73,415.87,269.73z"></path><path class="st2" d="M333.64,260.69c-0.17,0-0.33-0.08-0.43-0.24c-0.14-0.24-0.07-0.54,0.17-0.69c12.49-7.63,28.06-8.28,41.67-8.3
			c15.69-0.01,33.78,0.56,50.03,7.71c0.25,0.11,0.37,0.41,0.26,0.66c-0.11,0.25-0.41,0.37-0.66,0.26
			c-16.07-7.07-34.04-7.64-49.62-7.62c-13.47,0.02-28.88,0.66-41.15,8.15C333.81,260.66,333.72,260.69,333.64,260.69z"></path></g><g id="item-1_2_"><path class="st0" d="M192.31,402.42h5.78l15.53-117.24l72.62-0.02l5.84,44.04c0,0-3.14-2.22-3.25-2.1
			c-7.59-4.69-16.59-6.48-25.44-7.62c-10.55-1.35-21.34-1.9-31.67,0.29c-8.34,2.06-16.87,4.21-23.97,9.03l-0.53,5.92
			c0,0,6.65-4.05,6.57-4c5.94-2.63,12.42-3.79,18.87-4.6c6.28-0.79,12.59-1.27,19.25-1.56c7.13,0.52,14.28,1.09,21.28,2.55
			s13.88,3.85,19.87,7.76l9.23,67.78l5.32-0.05c0,0-13.16-117.48-13.09-117.52c0.68,0.09,1.4-0.03,1.99-0.38
			c0.59-0.35,1.05-0.94,1.21-1.61c0.19-0.81-0.07-1.71-0.67-2.29c-0.51-0.49-1.21-0.73-1.9-0.93c0,0-90.64,0.21-90.85,0.16
			c-0.71,0.12-1.49,0.28-1.96,0.83c-0.36,0.41-0.49,0.98-0.47,1.53c0.01,0.37,0.08,0.75,0.27,1.07c0.23,0.4,0.63,0.68,1.03,0.91
			c0.73,0.43,1.54,0.74,2.37,0.92L192.31,402.42z"></path><path class="st1" d="M202.71,280.29c-2.66-2.51-3.98-6.29-3.72-9.93c0.26-3.64,2.04-7.11,4.67-10.47
			c-1.69-23.02-3-46.83,4.83-68.55c3.77-10.46,9.87-20.44,19.02-26.74c11.93-8.22,28.55-9.02,41.22-2
			c9.86,5.47,16.98,15.05,21.27,25.49c4.28,10.43,5.96,21.74,6.99,32.97c1.18,12.88,1.54,25.96-0.9,38.95
			c4.38,3.87,6.27,10.35,4.64,15.96c-0.43,1.48-1.12,2.94-2.32,3.91c-0.29,0.23-0.61,0.43-0.97,0.48c-0.94,0.12-1.97-0.82-2.75-0.27
			L202.71,280.29z"></path><path class="st2" d="M295.28,285.54h-91c-1.65,0-3-1.35-3-3s1.35-3,3-3h91c1.65,0,3,1.35,3,3S296.93,285.54,295.28,285.54z
			 M204.28,280.54c-1.1,0-2,0.9-2,2s0.9,2,2,2h91c1.1,0,2-0.9,2-2s-0.9-2-2-2H204.28z"></path><path class="st2" d="M198.08,403.11h-5.85c-0.14,0-0.28-0.06-0.37-0.17s-0.14-0.25-0.12-0.39l13.32-116.82
			c0.03-0.27,0.28-0.47,0.55-0.44c0.27,0.03,0.47,0.28,0.44,0.55l-13.25,116.27h4.85l15.38-116.74c0.04-0.27,0.28-0.47,0.56-0.43
			c0.27,0.04,0.47,0.29,0.43,0.56l-15.44,117.17C198.55,402.92,198.33,403.11,198.08,403.11z"></path><path class="st2" d="M307.68,403.03h-5.52c-0.25,0-0.46-0.18-0.5-0.43L285.7,285.1c-0.04-0.27,0.15-0.53,0.43-0.56
			c0.27-0.04,0.53,0.15,0.56,0.43l15.91,117.06h4.52l-13.1-116.36c-0.03-0.27,0.17-0.52,0.44-0.55c0.27-0.03,0.52,0.17,0.55,0.44
			l13.16,116.92c0.02,0.14-0.03,0.28-0.12,0.39C307.96,402.97,307.83,403.03,307.68,403.03z"></path><path class="st2" d="M207.38,335.38c-0.15,0-0.29-0.06-0.39-0.18c-0.18-0.21-0.14-0.53,0.07-0.7c7.09-5.8,16.47-7.73,24.7-8.84
			c20.38-2.76,38.34-1.29,53.38,4.36c2.51,0.94,5.4,2.17,7.79,4.12c0.21,0.17,0.25,0.49,0.07,0.7c-0.17,0.21-0.49,0.25-0.7,0.07
			c-2.28-1.86-5.07-3.04-7.51-3.96c-14.88-5.59-32.68-7.04-52.89-4.31c-8.1,1.09-17.3,2.98-24.2,8.62
			C207.61,335.34,207.5,335.38,207.38,335.38z"></path><path class="st2" d="M291.76,329.59c-0.11,0-0.22-0.04-0.31-0.11c-7.55-5.94-17.36-8.05-25.06-9.22
			c-10.93-1.66-20.69-1.91-29.84-0.76c-10.57,1.33-20.02,4.52-28.09,9.47c-0.24,0.15-0.54,0.07-0.69-0.16
			c-0.14-0.24-0.07-0.54,0.16-0.69c8.2-5.03,17.78-8.27,28.49-9.62c9.25-1.16,19.1-0.91,30.12,0.76c7.82,1.19,17.79,3.34,25.53,9.42
			c0.22,0.17,0.25,0.49,0.08,0.7C292.05,329.52,291.91,329.59,291.76,329.59z"></path><path class="st2" d="M286.83,269.73c-1.38,0-2.77-0.12-4.13-0.46c-1.3-0.32-2.55-0.83-3.76-1.32c-1.69-0.69-3.28-1.34-5-1.52
			c-2.6-0.28-5.08,0.53-7.72,1.38c-2.2,0.71-4.47,1.45-6.81,1.5c-2.18,0.05-4.31-0.5-6.38-1.02c-1.77-0.45-3.6-0.92-5.42-0.99
			c-1.84-0.07-3.74,0.27-5.57,0.59c-2.41,0.43-4.89,0.87-7.37,0.43c-1.61-0.29-3.13-0.94-4.59-1.57c-1.69-0.73-3.29-1.42-5.02-1.59
			c-2.94-0.29-5.83,0.96-8.62,2.17c-0.4,0.18-0.8,0.35-1.2,0.52c-2.86,1.21-7.06,2.61-10.6,0.81c-0.25-0.12-0.34-0.43-0.22-0.67
			c0.12-0.25,0.42-0.34,0.67-0.22c3.16,1.61,7.08,0.29,9.76-0.84c0.4-0.17,0.79-0.34,1.19-0.52c2.91-1.27,5.92-2.58,9.12-2.25
			c1.89,0.19,3.63,0.94,5.32,1.67c1.41,0.61,2.87,1.24,4.37,1.51c2.29,0.41,4.59,0,7.01-0.43c1.88-0.33,3.83-0.68,5.78-0.61
			c1.92,0.07,3.81,0.56,5.63,1.02c2.09,0.54,4.06,1.03,6.1,0.99c2.2-0.05,4.4-0.76,6.53-1.45c2.62-0.85,5.32-1.73,8.13-1.42
			c1.86,0.2,3.59,0.91,5.27,1.59c1.18,0.48,2.4,0.98,3.63,1.28c3.17,0.78,6.5,0.34,9.72-0.08c0.28-0.04,0.52,0.16,0.56,0.43
			c0.04,0.27-0.16,0.53-0.43,0.56C290.91,269.46,288.87,269.73,286.83,269.73z"></path><path class="st2" d="M204.59,260.69c-0.17,0-0.33-0.08-0.43-0.24c-0.14-0.24-0.07-0.54,0.17-0.69c12.49-7.63,28.06-8.28,41.67-8.3
			c15.69-0.01,33.78,0.56,50.03,7.71c0.25,0.11,0.37,0.41,0.26,0.66c-0.11,0.25-0.41,0.37-0.66,0.26
			c-16.07-7.07-34.04-7.64-49.62-7.62c-13.47,0.02-28.88,0.66-41.15,8.15C204.77,260.66,204.68,260.69,204.59,260.69z"></path></g></g><g id="character"><path class="st2" d="M242.4,133.14c-1.36-5.82-0.79-12.05,1.43-17.59c2.23-5.55,6.08-10.4,10.86-13.99c2.27-1.7,4.78-3.14,7.5-3.95
		c5.95-1.77,12.77-0.23,17.57,4.18c2.15,0.58,3.89,2.25,4.93,4.22c1.04,1.97,1.44,4.22,1.56,6.44c0.26,4.85-0.75,9.73-0.26,14.56
		c0.19,1.87,0.66,3.82,1.97,5.16c0.15,0.16,0.33,0.35,0.29,0.56c-0.04,0.2-0.24,0.31-0.42,0.39c-2.67,1.24-5.6,2.05-7.9,3.9
		c-1.5,1.21-2.64,2.81-4.13,4.03c-2,1.64-4.52,2.52-7.03,3.15c-1.46,0.37-3,0.67-4.46,0.31c-2.04-0.5-3.55-2.14-5.14-3.51
		c-2.78-2.38-6.14-4.08-9.7-4.89C247.17,135.58,244.54,135.29,242.4,133.14z"></path><path class="st3" d="M239.1,217.02c4.17,3.53,10.12,4.83,15.38,3.36c1.36-0.38,2.69-0.94,4.11-1.04c1.48-0.11,3.14,0.25,4.32-0.65
		c0,0,13.73-5.08,13.9-4.93c11.66-3.53,23.55-6.86,35.91-7.15c7.53-0.88,15.2-0.49,22.59,1.17c4.12,0.92,8.29,2.31,11.4,5.18
		c3.1,2.86,4.88,7.5,3.35,11.44c-0.66,1.69-1.84,3.11-3.1,4.42c-3.92,4.09-8.63,7.33-13.65,10.55
		c-11.85,6.78-26.04,7.91-38.81,12.74c-1.32,0.5-2.66,1.06-3.69,2.04c-0.41,0.39-0.78,0.85-1.29,1.12c-1.12,0.59-2.46,0.01-3.7-0.25
		c-1.97-0.42-4-0.01-6.01,0.14c-2.01,0.15-4.21-0.03-6-1.44c-4.49-0.63-8.97-1.43-13.4-2.39c-0.6-0.13-1.22-0.26-1.82-0.14
		c-0.58,0.12-1.08,0.48-1.6,0.75c-1.74,0.88-3.79,0.77-5.74,0.65c-3.62-0.23-7.24-0.47-10.86-0.7c-0.8-0.05-1.61-0.11-2.35-0.4
		c-0.55-0.22-1.05-0.56-1.61-0.74c-1.43-0.44-2.93,0.25-4.28,0.91c-5.92,2.86-12.1,5.18-18.44,6.9c-0.94,0.25-1.9,0.5-2.87,0.38
		c-0.54-0.07-1.05-0.25-1.59-0.31c-2.04-0.22-4.15,1.27-6.04,0.46c0,0-0.24-0.21-0.86-0.19c-11.77-1.86-22.62-7.44-32.72-13.75
		c-9.2-5.74-18.21-12.4-23.42-21.89c-0.92-2.38-1.87-4.86-1.68-7.41c0.23-3.21,2.27-6.1,4.9-7.97c2.62-1.87,5.78-2.84,8.93-3.5
		c13.45-2.81,27.38-0.4,40.91,2.05l14.93,3.77L239.1,217.02z"></path><path class="st4" d="M238.49,138.82c1.87-0.54,3.89-0.6,5.78-0.15c3.04,0.71,5.67,2.63,8.69,3.41c2.59,0.68,5.4,0.49,7.87,1.52
		c2.24,0.93,3.98,2.75,6.1,3.92c4.41,2.43,9.91,1.76,15.1,3.6c1.92-0.49,3.94-0.7,5.87-0.3c1.94,0.4,3.78,1.46,4.86,3.12
		c0,0,12.24,25.68,12.19,25.68c-0.81,1.28-2.49,1.58-3.98,1.85c-3.85,0.7-7.76,2.09-10.41,4.98c-0.7,0.76-1.29,1.61-2.06,2.3
		c-0.76,0.69-1.74,1.23-2.77,1.17c0,0-7.59-15.7-7.74-15.15c0.06,3.54-1.79,7.06-4.74,9.01c-1.42,0.94-3.05,1.52-4.52,2.39
		c-2.81,1.67-4.9,4.33-6.59,7.12c-2.49,4.13-4.28,9.04-3.25,13.75c0.41,1.9,1.41,3.83,3.18,4.63c0.83,0.38,1.83,0.51,2.43,1.19
		c1.07,1.22,0.2,3.32,1.15,4.64l-17.32,8.8l-5.47-3.17l-17.13-8.06c0,0-16.85-5.98-16.96-6.36c-6.33-16.48-6.97-35.09-2.01-52.24
		c-3.82,2.57-7.64,5.15-11.46,7.72c-0.92,0.62-1.89,1.25-2.99,1.33c-1.37,0.1-2.67-0.7-3.57-1.73c-0.91-1.03-1.51-2.28-2.22-3.46
		c-2.39-3.97-6.07-7.18-7.74-11.5c-0.39-1-0.61-2.27,0.15-3.04c0,0,22.59-14.54,22.75-14.3c2.54-1.22,5.14-2.45,7.93-2.81
		c2.79-0.35,5.64,0.2,8.26,1.22c2.62,1.02,5.03,2.51,7.37,4.07L238.49,138.82z"></path><path class="st0" d="M279.56,120.4c-0.99,3.13-2.35,6.15-3.91,9.12c1.68,0.35,2.97,1.68,4.48,2.51c1.07,0.59,2.26,0.93,3.29,1.59
		c1.03,0.66,1.91,1.77,1.78,2.98l0.81,3.59c0,0,14.83,40.84,14.99,40.76c0.68-0.36,1.36-0.73,2.11-0.89s1.58-0.1,2.21,0.33
		c0,0,5.1,10.41,4.92,10.65c1.98,4.89,2.45,10.37,1.32,15.53l-6.87,0.75c0,0-7.47,1.07-7.52,0.98c-2.26-1-4.26-2.58-5.74-4.56
		c0,0-6.07-14.6-6.04-14.81c0.49-1.5,0.35-3.2-0.4-4.6c0,0-10.64-36.88-10.77-37.03c-1.18-0.44-1.6-1.89-1.71-3.14
		c-0.13-1.47-0.05-2.96,0.23-4.42c-0.74,0.18-1.48,0.36-2.22,0.53c-0.13,0.03-0.27,0.07-0.35,0.18c-0.08,0.1-0.08,0.24-0.07,0.37
		c0.13,1.4,1.4,2.48,1.59,3.88c0.02,0.17,0.03,0.35-0.03,0.51c-0.18,0.47-0.8,0.57-1.3,0.5c-1.26-0.19-2.34-1.03-3.1-2.05
		c-0.76-1.02-1.24-2.21-1.72-3.4c-2.71,3.08-5.91,6.17-10.05,7.09c-0.76,1.28-2.22,2.03-3.69,2.23s-2.97-0.08-4.41-0.47
		c-2.39-0.64-4.77-1.6-6.6-3.27c-1.83-1.67-3.05-4.15-2.74-6.61c0,0,11.22-17.99,11.35-17.94c0.15-2.13,0.68-4.22,1.56-6.17
		c0.67-1.48,1.55-2.89,2.78-3.94c0.61-0.53,1.48-0.97,2.2-0.6c0.44,0.23,0.7,0.71,1.13,0.96c0.32,0.19,0.71,0.23,1.08,0.26
		c1.28,0.12,2.55,0.24,3.83,0.36c1.48,0.14,2.97,0.28,4.45,0.21c3.43-0.16,6.71-1.4,10.01-2.26c0.32,1.41,0.15,2.88,0.42,4.3
		C277.23,116.21,278.24,117.78,279.56,120.4z"></path><path class="st0" d="M178.36,147.75c0.36-0.25,0.71-0.5,1.07-0.75c0.12-0.09,0.26-0.18,0.41-0.18c0.18-0.01,0.34,0.11,0.48,0.23
		c3.93,3.17,7.94,6.41,10.64,10.68c0.23,0.36,0.45,0.79,0.32,1.19c-0.12,0.35-0.46,0.56-0.78,0.73c-1.33,0.74-2.69,1.44-4.06,2.11
		c-0.06,0.03-0.15,0.06-0.2,0.01c-0.05-0.05,0.06-0.15,0.08-0.08c0,0,16.99,39.82,17.18,39.8c0.88,0,1.85,0.04,2.51,0.63
		c0.61,0.55,0.77,1.42,1.18,2.13c0.6,1.03,1.68,1.66,2.57,2.44s1.67,1.95,1.34,3.09c-1.15-0.02-2.3-0.24-3.38-0.63
		c0.03,0.55,0.06,1.11-0.09,1.64s-0.5,1.03-1.01,1.22c-0.68,0.24-1.46-0.14-1.9-0.72s-0.61-1.3-0.78-2.01
		c-0.39,0.5-0.54,1.14-0.83,1.7c-0.29,0.56-0.8,1.1-1.44,1.07c-0.7-0.03-1.17-0.73-1.39-1.39c-0.22-0.66-0.34-1.39-0.81-1.9
		c-0.27,0.68-0.74,1.29-1.32,1.74c-0.35,0.27-0.81,0.48-1.22,0.32c-0.57-0.24-0.63-1-0.69-1.62c-0.06-0.71-0.24-1.41-0.53-2.07
		c-0.04-0.1-0.1-0.2-0.2-0.23c-0.2-0.06-0.32,0.2-0.39,0.39c-0.33,0.98-1.29,1.72-2.32,1.8c-0.13,0.01-0.27,0.01-0.38-0.07
		c-0.1-0.07-0.16-0.19-0.2-0.31c-0.41-1.09-0.52-2.28-0.31-3.42c0.08-0.42,0.19-0.84,0.19-1.26c-0.01-0.43-0.16-0.88-0.51-1.12
		c0,0-23.11-37.77-23.14-37.66c-0.87-1.11-0.91-2.63-0.88-4.04c0.02-1.1,0.07-2.21,0.38-3.26c0.31-1.05,0.9-2.06,1.82-2.65
		L178.36,147.75z"></path><path class="st0" d="M258.81,250.66c4.29-2.87,9.32-4.61,14.47-5c1.21-0.09,2.45-0.11,3.62,0.21s2.29,1.01,2.89,2.06
		c0.36,0.62,0.52,1.33,0.68,2.03c0.89,3.88,1.7,7.85,1.31,11.81c-0.15,1.48-0.58,3.12-1.87,3.88c-1.37,0.81-3.2,0.25-4.38-0.81
		c-1.19-1.06-1.92-2.52-2.79-3.85C269.55,256.08,264.34,252.7,258.81,250.66z"></path><path class="st0" d="M238.11,251.24c-0.78-5.11-0.1-10.44,1.76-15.15c-0.94,0.36-2.01,0.16-2.95-0.22c-0.94-0.38-1.8-0.93-2.74-1.3
		c-1.89-0.74-4.03-0.71-6-0.18c-1.96,0.53-3.77,1.53-5.45,2.67c-7.18,4.91-12.17,12.69-14.44,21.09c-0.77,2.86-1.25,5.92-0.42,8.76
		c0.21,0.71,0.52,1.43,1.11,1.88c0.61,0.46,1.44,0.55,2.2,0.47c2.3-0.23,4.25-1.74,5.97-3.29c3.25-2.95,6.14-6.29,9.5-9.1
		C230.01,254.06,234,251.74,238.11,251.24z"></path><ellipse class="st2" transform="matrix(0.4511 -0.8925 0.8925 0.4511 36.9422 302.4498)" cx="264.34" cy="121.19" rx="2.24" ry="1.4"></ellipse><ellipse class="st2" transform="matrix(0.4511 -0.8925 0.8925 0.4511 37.6961 311.4611)" cx="272.04" cy="125.09" rx="2.24" ry="1.4"></ellipse><path class="st2" d="M280.98,122.81c-0.14,0-0.27-0.06-0.37-0.17c-2.58-2.87-3.41-6.76-4.21-10.53c-0.04-0.18-0.08-0.35-0.11-0.53
		c-0.66,1.54-1.03,3.2-1.07,4.87c-0.01,0.27-0.23,0.49-0.5,0.49c0,0-0.01,0-0.01,0c-0.28-0.01-0.49-0.24-0.49-0.51
		c0.06-2.3,0.69-4.58,1.82-6.59c0.1-0.18,0.3-0.28,0.51-0.25c0.2,0.03,0.37,0.18,0.42,0.38c0.15,0.64,0.28,1.28,0.42,1.93
		c0.78,3.64,1.58,7.4,3.98,10.07c0.18,0.21,0.17,0.52-0.04,0.71C281.22,122.77,281.1,122.81,280.98,122.81z"></path><path class="st2" d="M264.05,113.08c-2.21,0-4.27-0.33-6.17-0.98c-0.26-0.09-0.4-0.37-0.31-0.64c0.09-0.26,0.37-0.4,0.63-0.31
		c4.76,1.64,10.65,1.1,17.48-1.61c0.25-0.1,0.55,0.02,0.65,0.28c0.1,0.26-0.02,0.55-0.28,0.65
		C271.68,112.21,267.66,113.08,264.05,113.08z"></path><path class="st2" d="M261.69,116.41c-1.32,0-2.54-0.36-3.52-1.07c-0.22-0.16-0.27-0.48-0.11-0.7c0.16-0.22,0.48-0.27,0.7-0.11
		c1.63,1.19,3.88,0.99,5.43,0.4c1.87-0.7,3.46-2.01,5-3.27c0.21-0.17,0.53-0.14,0.7,0.07c0.17,0.21,0.14,0.53-0.07,0.7
		c-1.6,1.32-3.26,2.68-5.29,3.44C263.58,116.24,262.61,116.41,261.69,116.41z"></path><path class="st2" d="M250.49,122.95c-0.13,0-0.27-0.05-0.37-0.16c-1.06-1.14-1.23-2.88-0.53-5.3c0.93-3.18,2.2-5.28,4.01-6.6
		c0.79-0.58,1.51-0.81,2.19-0.72c0.64,0.09,1.21,0.51,1.53,1.14c0.32,0.63,0.34,1.34,0.04,1.9c-0.13,0.24-0.43,0.34-0.68,0.21
		c-0.24-0.13-0.34-0.43-0.21-0.68c0.15-0.28,0.13-0.64-0.04-0.98c-0.17-0.34-0.46-0.56-0.77-0.6c-0.43-0.06-0.9,0.12-1.47,0.53
		c-1.62,1.18-2.78,3.11-3.64,6.07c-0.6,2.06-0.5,3.48,0.3,4.34c0.19,0.2,0.18,0.52-0.03,0.71
		C250.74,122.91,250.61,122.95,250.49,122.95z"></path><path class="st2" d="M238.17,139.83c-0.1,0-0.2-0.03-0.29-0.09c-0.22-0.16-0.28-0.47-0.12-0.7c4.19-5.87,7.97-12.11,11.23-18.54
		c0.12-0.25,0.42-0.35,0.67-0.22c0.25,0.12,0.34,0.43,0.22,0.67c-3.29,6.48-7.09,12.76-11.31,18.67
		C238.48,139.76,238.33,139.83,238.17,139.83z"></path><path class="st2" d="M275.41,129.81c-0.11,0-0.22-0.04-0.31-0.11c-0.22-0.17-0.25-0.49-0.08-0.7c1.84-2.3,3.15-5.04,3.78-7.91
		c0.06-0.27,0.32-0.44,0.6-0.38c0.27,0.06,0.44,0.33,0.38,0.6c-0.67,3.02-2.05,5.9-3.98,8.32
		C275.7,129.75,275.55,129.81,275.41,129.81z"></path><path class="st2" d="M255.17,147.54c-1.17,0-2.27-0.32-3.13-0.94c-0.22-0.16-0.28-0.47-0.12-0.7c0.16-0.23,0.47-0.28,0.7-0.12
		c1.07,0.77,2.62,0.96,4.15,0.52c1.56-0.45,2.92-1.46,3.93-2.29c1.48-1.21,2.84-2.58,4.06-4.05c0.17-0.21,0.49-0.24,0.7-0.07
		c0.21,0.18,0.24,0.49,0.07,0.7c-1.25,1.53-2.67,2.94-4.19,4.19c-1.08,0.89-2.55,1.97-4.28,2.47
		C256.42,147.45,255.79,147.54,255.17,147.54z"></path><path class="st2" d="M250.17,142.98c-0.19,0-0.37-0.1-0.45-0.28c-2.26-4.73-2.06-10.17-1.7-14.89c0.02-0.28,0.26-0.49,0.54-0.46
		c0.28,0.02,0.48,0.26,0.46,0.54c-0.36,4.59-0.55,9.87,1.6,14.38c0.12,0.25,0.01,0.55-0.24,0.67
		C250.31,142.96,250.24,142.98,250.17,142.98z"></path><path class="st2" d="M276.32,123.95c-0.06,0-0.12-0.01-0.18-0.03c-1.88-0.72-3.37-2.29-3.98-4.21c-0.08-0.26,0.06-0.54,0.33-0.63
		c0.27-0.08,0.54,0.06,0.63,0.33c0.51,1.61,1.81,2.98,3.38,3.58c0.26,0.1,0.39,0.39,0.29,0.65
		C276.71,123.82,276.52,123.95,276.32,123.95z"></path><path class="st2" d="M268.07,118.22c-1.77,0-3.53-0.55-4.99-1.55c-0.23-0.16-0.29-0.47-0.13-0.7c0.16-0.23,0.47-0.28,0.7-0.13
		c1.35,0.93,2.97,1.42,4.62,1.37c0.3,0.03,0.51,0.21,0.51,0.49c0.01,0.28-0.21,0.51-0.49,0.51
		C268.22,118.22,268.15,118.22,268.07,118.22z"></path><path class="st2" d="M270.21,119.8c-0.08,0-0.16-0.02-0.23-0.06c-0.24-0.13-0.34-0.43-0.21-0.68l0.69-1.31
		c0.13-0.24,0.43-0.34,0.68-0.21c0.24,0.13,0.34,0.43,0.21,0.68l-0.69,1.31C270.57,119.71,270.39,119.8,270.21,119.8z"></path><path class="st2" d="M267.18,136.35c-0.15,0-0.3-0.07-0.39-0.19l-5.7-7.26c-0.17-0.22-0.13-0.53,0.08-0.7
		c0.22-0.17,0.53-0.13,0.7,0.08l4.56,5.81c-0.33-3.63,0.29-7.35,1.79-10.67c0.11-0.25,0.41-0.36,0.66-0.25
		c0.25,0.11,0.36,0.41,0.25,0.66c-1.67,3.69-2.19,7.93-1.46,11.92c0.04,0.23-0.08,0.45-0.29,0.55
		C267.32,136.34,267.25,136.35,267.18,136.35z"></path><path class="st2" d="M263.96,139.79c-0.27,0-0.49-0.21-0.5-0.48c-0.06-1.36,0.23-2.73,0.83-3.96c0.12-0.25,0.42-0.35,0.67-0.23
		c0.25,0.12,0.35,0.42,0.23,0.67c-0.53,1.08-0.78,2.28-0.72,3.48c0.01,0.28-0.2,0.51-0.48,0.52
		C263.97,139.79,263.96,139.79,263.96,139.79z"></path><path class="st2" d="M268.94,130.5c-0.13,0-0.25-0.05-0.35-0.14c-0.2-0.19-0.2-0.51-0.01-0.71c1.16-1.19,2.84-1.81,4.49-1.66
		c0.27,0.02,0.48,0.27,0.45,0.54c-0.03,0.28-0.28,0.48-0.54,0.45c-1.33-0.12-2.75,0.4-3.68,1.36
		C269.2,130.45,269.07,130.5,268.94,130.5z"></path><path class="st2" d="M260.19,136.03c-0.21,0-0.4-0.13-0.47-0.33c-0.21-0.6-0.53-1.08-0.92-1.38c-0.43-0.33-0.97-0.45-1.41-0.32
		c-0.24,0.07-0.43,0.22-0.5,0.39c-0.11,0.25-0.41,0.37-0.66,0.26c-0.25-0.11-0.37-0.4-0.26-0.66c0.19-0.44,0.6-0.79,1.12-0.95
		c0.75-0.23,1.63-0.04,2.31,0.48c0.55,0.42,0.98,1.06,1.26,1.84c0.09,0.26-0.05,0.55-0.31,0.64
		C260.3,136.02,260.24,136.03,260.19,136.03z"></path><path class="st2" d="M242.74,142.89c-0.08,0-0.16-0.02-0.23-0.06c-0.24-0.13-0.34-0.43-0.21-0.68c0.77-1.46,0.71-3.15,0.65-4.95
		c-0.04-1.01-0.07-2.06,0.05-3.07c0.28-2.35,1.41-4.53,2.42-6.45c0.12-0.22,0.38-0.32,0.61-0.24c0.23,0.08,0.37,0.32,0.33,0.57
		c-0.31,1.63-0.09,3.34,0.14,5.16c0.28,2.22,0.58,4.52-0.18,6.7c-0.09,0.26-0.38,0.4-0.64,0.31s-0.4-0.38-0.31-0.64
		c0.68-1.96,0.42-4.04,0.13-6.24c-0.12-0.98-0.25-1.97-0.29-2.96c-0.58,1.26-1.05,2.56-1.22,3.92c-0.11,0.94-0.08,1.95-0.04,2.92
		c0.07,1.85,0.13,3.75-0.76,5.45C243.09,142.79,242.92,142.89,242.74,142.89z"></path><path class="st2" d="M306.88,198.03c-0.2,0-0.39-0.12-0.47-0.33l-18.17-48.92c-0.85-2.14-1.64-4.36-2.33-6.57
		c-0.42-1.35-0.52-2.51-0.61-3.54c-0.03-0.34-0.06-0.68-0.1-1.01c-0.19-1.58-0.64-2.69-1.37-3.38c-0.02-0.02-0.04-0.04-0.06-0.06
		c-0.59-0.26-1.68-0.86-3.77-2l-3.84-2.1c-0.71-0.05-1.46,0.12-2.08,0.49l-0.01-0.01c-0.41,0.63-1.42,1.89-3.63,4.66
		c-1.9,2.38-3.8,4.75-3.8,4.75c-0.32,0.44-0.2,1.14-0.1,1.53c0.47,1.77,1.99,3.24,3.71,3.56c0.05,0.01,0.1,0.03,0.14,0.05
		c0.5,0.26,0.67,0.23,0.73,0.19c0.06-0.04,0.1-0.21,0.06-0.38c-0.06-0.2-0.2-0.4-0.34-0.62l-0.08-0.12
		c-0.8-1.19-1.31-2.58-1.47-4.03c-0.02-0.15,0.03-0.29,0.14-0.4c0.1-0.11,0.25-0.16,0.4-0.15c1.32,0.09,2.64-0.64,3.28-1.79
		c0.05-0.1,0.1-0.21,0.15-0.31c0.12-0.24,0.41-0.34,0.66-0.23c0.25,0.11,0.35,0.4,0.25,0.65c-0.05,0.12-0.1,0.23-0.16,0.34
		c-0.81,1.73-1.16,3.64-1.01,5.55c0.06,0.74,0.33,2.51,1.59,3.04c0.14,0.06,0.25,0.18,0.29,0.32l12.53,43.97
		c0.08,0.27-0.08,0.54-0.34,0.62c-0.27,0.08-0.54-0.08-0.62-0.34l-12.47-43.76c-0.84-0.44-1.45-1.32-1.77-2.5
		c-0.02,0.36-0.17,0.73-0.5,0.96c-0.62,0.43-1.37,0.09-1.71-0.09c-2.08-0.43-3.85-2.14-4.41-4.27c-0.26-0.97-0.16-1.8,0.28-2.39
		c2.88-3.59,7.21-9,7.54-9.47c0.04-0.07,0.1-0.14,0.18-0.18c0.83-0.49,1.83-0.71,2.78-0.61c0.07,0.01,0.13,0.03,0.19,0.06
		c2.97,1.62,7.43,4.06,7.83,4.27c0.02,0.01,0.04,0.02,0.06,0.03c0.03,0.02,0.06,0.04,0.09,0.07c0.9,0.86,1.44,2.16,1.66,3.98
		c0.04,0.34,0.07,0.69,0.1,1.04c0.09,1.02,0.18,2.08,0.57,3.33c0.68,2.19,1.46,4.38,2.31,6.51l18.17,48.93
		c0.1,0.26-0.04,0.55-0.29,0.64C307,198.02,306.94,198.03,306.88,198.03z M270.36,140.63c0.19,1.09,0.61,2.13,1.22,3.03l0.08,0.11
		c0.13,0.19,0.27,0.39,0.38,0.63c-0.02-0.16-0.04-0.32-0.05-0.48c-0.1-1.32,0.01-2.65,0.33-3.92
		C271.73,140.36,271.05,140.58,270.36,140.63z"></path><path class="st2" d="M249.38,153.76c-0.42,0-0.84-0.01-1.28-0.04c-4.09-0.23-7.34-1.38-9.65-3.43c-2.68-2.37-4.06-6.05-3.6-9.6
		c0.04-0.27,0.28-0.47,0.56-0.43c0.27,0.04,0.47,0.29,0.43,0.56c-0.42,3.23,0.83,6.57,3.27,8.73c2.14,1.9,5.19,2.97,9.04,3.18
		c2.72,0.15,6.55-0.13,9.37-2.33c0.22-0.17,0.53-0.13,0.7,0.09c0.17,0.22,0.13,0.53-0.09,0.7
		C255.97,152.88,252.96,153.76,249.38,153.76z"></path><path class="st2" d="M311.65,206.3c-0.04,0-0.09-0.01-0.13-0.02c-0.27-0.07-0.42-0.35-0.35-0.61c1.06-3.86,0.8-8.4-0.76-13.15
		c-1.39-4.22-3.6-8.18-5.76-12.01c-1.27-0.27-2.31-0.05-3.26,0.69c-0.21,0.17-0.53,0.13-0.7-0.09c-0.17-0.22-0.13-0.53,0.09-0.7
		c1.24-0.97,2.66-1.25,4.32-0.82c0.13,0.03,0.25,0.12,0.31,0.24c2.21,3.93,4.5,8,5.94,12.38c1.62,4.94,1.89,9.69,0.78,13.73
		C312.07,206.15,311.86,206.3,311.65,206.3z"></path><path class="st2" d="M296.61,208.28c-0.04,0-0.09-0.01-0.14-0.02c-2.39-0.68-4.04-2.49-4.99-3.89c-1.15-1.68-1.91-3.59-2.64-5.44
		l-0.06-0.15c-3.16-7.98-6.62-15.95-10.27-23.7c-0.12-0.25-0.01-0.55,0.24-0.67c0.25-0.12,0.55-0.01,0.67,0.24
		c3.66,7.77,7.12,15.76,10.29,23.76l0.06,0.15c0.71,1.79,1.45,3.65,2.53,5.24c0.86,1.26,2.33,2.89,4.44,3.49
		c0.27,0.08,0.42,0.35,0.34,0.62C297.03,208.14,296.83,208.28,296.61,208.28z"></path><path class="st2" d="M207.25,156.64c-0.16,0-0.32-0.08-0.42-0.23c-0.15-0.23-0.09-0.54,0.14-0.69c1.87-1.22,4.03-2,6.26-2.25
		c0.59-0.06,0.85,0.18,0.97,0.4c0.13,0.24,0.04,0.55-0.2,0.68c-0.2,0.11-0.44,0.07-0.6-0.09c-0.02,0-0.04,0-0.07,0.01
		c-2.07,0.23-4.08,0.96-5.82,2.1C207.44,156.62,207.34,156.64,207.25,156.64z M213.32,154.35
		C213.32,154.35,213.32,154.35,213.32,154.35C213.32,154.35,213.32,154.35,213.32,154.35z"></path><path class="st2" d="M192.37,203.95c-0.17,0-0.33-0.08-0.42-0.23l-24-38.39c-1.48-3.11-1.11-7,0.88-9.73l0.06,0.05
		c0.38-0.47,1.57-1.51,4.82-4.35l4.82-4.21c0.21-0.18,0.52-0.16,0.71,0.05c0.18,0.21,0.16,0.52-0.05,0.71
		c-3.65,3.18-9.12,7.96-9.58,8.38c-1.76,2.44-2.08,5.91-0.79,8.63l23.97,38.33c0.15,0.23,0.08,0.54-0.16,0.69
		C192.56,203.92,192.46,203.95,192.37,203.95z"></path><path class="st2" d="M203.37,202.01c-0.19,0-0.38-0.11-0.46-0.3c0,0-4.3-9.75-8.58-19.52c-6.16-14.05-7.97-18.19-8.34-19.52
		l-0.03,0.03c-1.57-1.91-4.25-2.85-6.67-2.34c-0.27,0.06-0.54-0.12-0.59-0.39s0.12-0.54,0.39-0.59c2.77-0.58,5.85,0.49,7.65,2.68
		c0.06,0.07,0.1,0.16,0.11,0.25c0.47,1.44,12.4,28.58,17,39c0.11,0.25,0,0.55-0.26,0.66C203.51,202,203.44,202.01,203.37,202.01z"></path><path class="st2" d="M186.64,162.1c-0.17,0-0.34-0.09-0.44-0.25c-0.14-0.24-0.05-0.55,0.19-0.68l4.24-2.39
		c0.24-0.14,0.55-0.05,0.68,0.19c0.14,0.24,0.05,0.55-0.19,0.68l-4.24,2.39C186.81,162.08,186.73,162.1,186.64,162.1z"></path><path class="st2" d="M201.64,212.71c-0.74,0-1.37-0.64-1.72-1.76c-0.15-0.48-0.29-0.97-0.43-1.46c-0.31,0.61-0.77,1.14-1.33,1.54
		c-0.66,0.46-1.37,0.49-1.81,0.07c-0.27-0.26-0.35-0.61-0.4-0.83l-0.53-2.5c-0.3,0.47-0.67,0.9-1.08,1.27
		c-0.38,0.34-1.02,0.69-1.64,0.63c-0.35-0.03-0.65-0.19-0.86-0.47c-0.28-0.36-0.29-0.8-0.3-1.09c-0.05-1.49-0.11-3.03,2.93-5.87
		c0.07-0.06,0.15-0.1,0.24-0.12c2.66-0.57,5.39-0.95,8.11-1.13c1.2-0.08,2.44-0.05,3.33,0.73c0.6,0.52,0.89,1.26,1.11,1.92
		c0.69,2.12,0.94,4.41,0.74,6.62c-0.15,1.6-0.84,2.15-1.39,2.33c-0.93,0.3-1.85-0.34-2.25-1.1c-0.29-0.55-0.39-1.13-0.48-1.7
		l-0.01-0.08c-0.15,0.74-0.44,1.46-0.86,2.09c-0.22,0.33-0.57,0.78-1.14,0.88C201.8,212.7,201.72,212.71,201.64,212.71z
		 M199.47,206.74c0.23,0,0.44,0.16,0.49,0.39c0.26,1.18,0.57,2.37,0.92,3.52c0.17,0.55,0.5,1.12,0.82,1.05
		c0.14-0.03,0.31-0.18,0.49-0.45c0.7-1.06,0.97-2.38,0.75-3.63c-0.04-0.2,0.05-0.4,0.23-0.51c0.17-0.11,0.39-0.1,0.56,0.02
		c0.74,0.54,0.98,1.44,1.1,2.08l0.07,0.43c0.08,0.51,0.16,0.98,0.37,1.38c0.21,0.39,0.68,0.74,1.06,0.62
		c0.5-0.16,0.65-0.99,0.7-1.47c0.2-2.08-0.04-4.23-0.69-6.22c-0.18-0.56-0.4-1.12-0.81-1.48c-0.65-0.57-1.69-0.55-2.61-0.48
		c-2.62,0.18-5.26,0.54-7.83,1.08c-2.6,2.46-2.56,3.7-2.51,5c0.01,0.18,0.01,0.41,0.1,0.52c0.03,0.04,0.07,0.07,0.16,0.08
		c0.24,0.02,0.6-0.14,0.88-0.38c0.67-0.6,1.18-1.37,1.46-2.22c0.07-0.21,0.29-0.35,0.5-0.34c0.23,0.01,0.41,0.17,0.46,0.39
		l0.84,3.93c0.02,0.1,0.06,0.27,0.11,0.32c0.05,0.05,0.29,0.01,0.54-0.17c0.92-0.65,1.46-1.8,1.37-2.92
		c-0.02-0.26,0.17-0.5,0.43-0.54C199.42,206.75,199.45,206.74,199.47,206.74z"></path><path class="st2" d="M211.04,209.96c-0.03,0-0.07,0-0.1-0.01c-0.27-0.06-0.44-0.32-0.39-0.59c0.11-0.5-0.04-1.05-0.39-1.43
		c-0.19-0.21-0.46-0.38-0.73-0.56c-0.13-0.08-0.26-0.17-0.38-0.26c-0.76-0.55-1.38-1.29-1.79-2.13c-0.12-0.25-0.02-0.55,0.23-0.67
		c0.25-0.12,0.55-0.02,0.67,0.23c0.34,0.7,0.85,1.3,1.47,1.75c0.11,0.08,0.23,0.16,0.35,0.23c0.31,0.21,0.64,0.42,0.92,0.72
		c0.56,0.61,0.8,1.5,0.63,2.31C211.48,209.8,211.27,209.96,211.04,209.96z"></path><path class="st2" d="M191.13,164.65c-0.23,0-0.46-0.03-0.67-0.08c-0.81-0.22-1.46-0.74-2.03-1.21c-0.21-0.17-0.25-0.49-0.07-0.7
		c0.17-0.21,0.49-0.25,0.7-0.07c0.52,0.42,1.05,0.85,1.65,1.02c0.47,0.13,1.12,0.03,1.38-0.39c0.19-0.31,0.16-0.77,0.13-1.09
		c-0.27-2.34-1.69-4.38-3.04-6.07c-2.86-3.57-6.25-6.63-10.08-9.12c-0.23-0.15-0.3-0.46-0.15-0.69c0.15-0.23,0.46-0.3,0.69-0.15
		c3.92,2.55,7.4,5.69,10.32,9.34c1.36,1.69,2.95,3.97,3.25,6.58c0.05,0.47,0.08,1.16-0.27,1.73
		C192.54,164.39,191.81,164.65,191.13,164.65z"></path><path class="st2" d="M278.09,174.39c-0.04,0-0.09-0.01-0.13-0.02c-0.27-0.07-0.42-0.35-0.35-0.61c0.69-2.55,0.85-5.28,0.45-7.89
		c-0.04-0.27,0.15-0.53,0.42-0.57c0.27-0.04,0.53,0.15,0.57,0.42c0.42,2.75,0.25,5.62-0.48,8.3
		C278.51,174.24,278.31,174.39,278.09,174.39z"></path><path class="st2" d="M235.96,208.6c-0.11,0-0.23-0.04-0.32-0.12c-0.21-0.18-0.24-0.49-0.06-0.7c0.67-0.8,1.52-1.38,2.34-1.94
		c0.35-0.24,0.69-0.47,1.03-0.73c0.89-0.67,1.94-1.75,1.95-3.04c0-0.38-0.09-0.76-0.18-1.17c-0.13-0.57-0.26-1.15-0.17-1.78
		c0.22-1.59,1.71-2.56,3.14-3.29c4.95-2.54,10.03-5,15.1-7.3c0.25-0.11,0.55,0,0.66,0.25c0.11,0.25,0,0.55-0.25,0.66
		c-5.05,2.29-10.12,4.74-15.05,7.28c-1.26,0.65-2.44,1.4-2.6,2.54c-0.06,0.45,0.04,0.92,0.16,1.42c0.1,0.45,0.21,0.91,0.2,1.4
		c-0.01,1.7-1.28,3.02-2.35,3.83c-0.35,0.26-0.71,0.51-1.07,0.76c-0.8,0.55-1.56,1.06-2.14,1.75
		C236.25,208.54,236.1,208.6,235.96,208.6z"></path><path class="st2" d="M237.46,214.03c-0.21,0-0.41-0.14-0.48-0.35c-0.08-0.26,0.07-0.54,0.33-0.62c4.27-1.3,8.27-2.73,10.36-6.04
		c0.3-0.48,0.56-0.98,0.82-1.51c0.32-0.65,0.66-1.31,1.09-1.93c1.2-1.71,3.16-2.93,5.23-3.24c0.27-0.04,0.53,0.15,0.57,0.42
		s-0.15,0.53-0.42,0.57c-1.81,0.28-3.51,1.33-4.56,2.83c-0.39,0.56-0.69,1.16-1.02,1.8c-0.27,0.53-0.54,1.08-0.87,1.6
		c-2.28,3.59-6.46,5.11-10.92,6.46C237.56,214.02,237.51,214.03,237.46,214.03z"></path><path class="st2" d="M292.39,132.91c-0.14,0-0.28-0.06-0.38-0.17c-4.42-5.05-6.83-11.79-6.63-18.49c0.01-0.28,0.24-0.49,0.51-0.48
		c0.28,0.01,0.49,0.24,0.49,0.52c-0.19,6.45,2.13,12.94,6.38,17.8c0.18,0.21,0.16,0.52-0.05,0.71
		C292.62,132.87,292.51,132.91,292.39,132.91z"></path><path class="st2" d="M238.56,125.18c-0.05,0-0.09-0.01-0.14-0.02c-0.26-0.08-0.42-0.36-0.34-0.62c1.88-6.43,5.39-12.33,10.13-17.07
		c0.2-0.19,0.51-0.19,0.71,0c0.2,0.2,0.19,0.51,0,0.71c-4.63,4.61-8.05,10.37-9.88,16.64C238.98,125.04,238.78,125.18,238.56,125.18
		z"></path><path class="st2" d="M261.26,227.09c-0.18,0-0.36-0.1-0.45-0.28c-0.12-0.25-0.02-0.55,0.22-0.67c16.35-8.16,34.65-12.5,52.93-12.55
		h0c0.28,0,0.5,0.22,0.5,0.5c0,0.28-0.22,0.5-0.5,0.5c-18.12,0.05-36.27,4.35-52.48,12.45
		C261.41,227.07,261.34,227.09,261.26,227.09z"></path><path class="st2" d="M220.04,232.68c-0.11,0-0.23-0.04-0.32-0.12c-11.88-9.85-26.91-15.78-42.31-16.69
		c-0.28-0.02-0.49-0.25-0.47-0.53c0.02-0.28,0.24-0.49,0.53-0.47c15.62,0.92,30.85,6.93,42.89,16.92c0.21,0.18,0.24,0.49,0.07,0.7
		C220.33,232.62,220.18,232.68,220.04,232.68z"></path><path class="st2" d="M247.64,226.32c-0.08,0-0.17-0.02-0.24-0.06c-12.33-6.89-25.43-12.45-38.96-16.52
		c-0.26-0.08-0.41-0.36-0.33-0.62c0.08-0.26,0.36-0.41,0.62-0.33c13.6,4.09,26.77,9.67,39.16,16.6c0.24,0.13,0.33,0.44,0.19,0.68
		C247.98,226.22,247.81,226.32,247.64,226.32z"></path><path class="st2" d="M287.97,255.99c-0.48,0-0.95-0.09-1.41-0.19c-0.56-0.11-1.08-0.22-1.57-0.14c-0.28,0.03-0.53-0.15-0.57-0.42
		c-0.04-0.27,0.15-0.53,0.42-0.57c0.67-0.09,1.3,0.03,1.92,0.15c0.63,0.13,1.23,0.25,1.76,0.1c0.59-0.16,1.07-0.64,1.57-1.14
		c0.46-0.46,0.94-0.95,1.57-1.25c4.38-1.93,9.42-3.14,14.75-4.41c1.77-0.42,3.55-0.85,5.32-1.3c15.18-3.92,26.38-9.66,34.25-17.56
		c1.55-1.56,3.23-3.46,3.89-5.78c1.16-4.02-1.07-8.2-3.79-10.56c-3.26-2.83-7.61-4.06-11.03-4.81c-5.9-1.29-11.95-1.8-17.98-1.49
		c-22.48,1.16-44.72,7.25-64.3,17.62c-4.14,2.19-7.43,4.23-10.06,7.05c-0.19,0.2-0.5,0.21-0.71,0.02c-0.2-0.19-0.21-0.5-0.02-0.71
		c2.73-2.92,6.1-5.01,10.32-7.25c19.71-10.44,42.09-16.58,64.72-17.74c6.12-0.3,12.26,0.21,18.24,1.52
		c3.54,0.77,8.04,2.05,11.48,5.03c2.96,2.57,5.37,7.15,4.09,11.59c-0.73,2.54-2.5,4.56-4.14,6.21c-7.99,8.03-19.34,13.86-34.7,17.83
		c-1.78,0.46-3.56,0.88-5.34,1.31c-5.29,1.26-10.29,2.46-14.57,4.34c-0.46,0.22-0.86,0.62-1.28,1.05c-0.57,0.57-1.16,1.17-2.01,1.4
		C288.51,255.96,288.24,255.99,287.97,255.99z"></path><path class="st2" d="M284.72,253.36c-0.09,0-0.19-0.03-0.27-0.08c-1.24-0.8-2.14-1.97-3.01-3.1c-0.94-1.22-1.83-2.38-3.09-3.05
		c-1.31-0.7-2.87-0.79-4.23-0.78c-6.45,0.05-12.76,2.32-17.76,6.39c-0.21,0.17-0.53,0.14-0.7-0.07c-0.17-0.21-0.14-0.53,0.07-0.7
		c5.18-4.22,11.7-6.57,18.38-6.62c1.48-0.02,3.2,0.09,4.71,0.9c1.44,0.78,2.44,2.07,3.41,3.32c0.86,1.11,1.67,2.16,2.76,2.87
		c0.23,0.15,0.3,0.46,0.15,0.69C285.05,253.28,284.89,253.36,284.72,253.36z"></path><path class="st2" d="M278.64,266.69c-1.08,0-2.13-0.48-2.86-1.05c-0.96-0.75-1.67-1.73-2.35-2.69l-0.24-0.33
		c-2.82-3.92-7.56-9.03-14.05-11.04c-0.26-0.08-0.41-0.36-0.33-0.63c0.08-0.26,0.36-0.42,0.63-0.33
		c5.35,1.66,10.39,5.61,14.57,11.41l0.24,0.34c0.64,0.9,1.3,1.82,2.15,2.48c0.79,0.61,2.02,1.11,3.11,0.68
		c1.76-0.7,2.02-3.27,2.02-4.75c-0.01-3.62-0.57-7.2-1.68-10.65c-0.08-0.26,0.06-0.54,0.32-0.63c0.26-0.09,0.54,0.06,0.63,0.32
		c1.14,3.55,1.72,7.23,1.73,10.95c0,2.11-0.45,4.81-2.65,5.68C279.46,266.62,279.05,266.69,278.64,266.69z"></path><path class="st2" d="M294.57,249.35c-1.8,0-3.76-0.17-5.48-1.11c-1.11-0.61-2.01-1.5-2.88-2.37c-0.88-0.87-1.71-1.69-2.74-2.24
		c-1.58-0.84-3.49-0.94-5.31-0.91c-4.11,0.05-8.21,0.61-12.18,1.65c-0.27,0.07-0.54-0.09-0.61-0.36c-0.07-0.27,0.09-0.54,0.36-0.61
		c4.05-1.06,8.23-1.63,12.42-1.68c1.96-0.03,4.02,0.08,5.8,1.03c1.15,0.61,2.07,1.53,2.97,2.41c0.86,0.85,1.67,1.65,2.67,2.2
		c1.78,0.98,3.94,1.02,5.85,0.98c3.76-0.08,7.55-0.49,11.24-1.23c0.26-0.05,0.53,0.12,0.59,0.39s-0.12,0.53-0.39,0.59
		c-3.75,0.74-7.59,1.16-11.41,1.25C295.16,249.34,294.87,249.35,294.57,249.35z"></path><path class="st2" d="M238.23,252.14c-0.25,0-0.46-0.18-0.5-0.44c-0.82-6.49,0.33-13.28,3.25-19.13c0.12-0.25,0.42-0.35,0.67-0.23
		c0.25,0.12,0.35,0.42,0.23,0.67c-2.83,5.67-3.95,12.27-3.15,18.56c0.03,0.27-0.16,0.52-0.43,0.56
		C238.27,252.13,238.25,252.14,238.23,252.14z"></path><path class="st2" d="M210.86,269.5c-0.57,0-1.09-0.1-1.55-0.31c-1.73-0.78-2.58-2.94-2.31-5.94c0.69-7.9,4.74-16.06,11.4-23
		c2.67-2.78,4.95-4.51,7.38-5.6c3.16-1.42,6.54-1.59,9.26-0.46c0.38,0.16,0.75,0.34,1.13,0.53c1.06,0.52,2.06,1.01,3.09,0.88
		c0.27-0.04,0.52,0.16,0.56,0.43c0.04,0.27-0.16,0.52-0.43,0.56c-1.33,0.17-2.51-0.41-3.65-0.97c-0.36-0.18-0.71-0.35-1.07-0.5
		c-2.47-1.03-5.56-0.86-8.47,0.45c-2.31,1.04-4.49,2.7-7.06,5.38c-6.5,6.77-10.45,14.73-11.13,22.4c-0.11,1.2-0.15,4.1,1.73,4.94
		c0.56,0.25,1.25,0.29,2.06,0.12c2.04-0.42,3.73-1.85,5.29-3.28c0.98-0.9,1.94-1.81,2.9-2.73c1.97-1.88,4.01-3.83,6.18-5.56
		c3.8-3.03,7.39-4.9,10.98-5.72c0.27-0.07,0.54,0.11,0.6,0.38s-0.11,0.54-0.38,0.6c-3.44,0.78-6.91,2.59-10.58,5.53
		c-2.14,1.71-4.16,3.64-6.12,5.51c-0.96,0.92-1.93,1.84-2.91,2.74c-1.59,1.46-3.47,3.05-5.76,3.52
		C211.59,269.46,211.22,269.5,210.86,269.5z"></path><path class="st2" d="M204.35,259.56c-0.02,0-0.04,0-0.06,0c-11.01-1.27-21.21-6.19-27.92-9.78c-12.31-6.58-20.93-13.27-27.13-21.05
		c-1.73-2.17-3.84-5.11-4.77-8.61c-0.95-3.55-0.43-7.19,1.39-9.72c0.86-1.2,2.09-2.29,3.74-3.32c6.52-4.08,14.68-4.48,21.07-4.37
		c7.17,0.12,14.38,0.86,21.42,2.21c0.27,0.05,0.45,0.31,0.4,0.58c-0.05,0.27-0.32,0.45-0.58,0.4c-6.99-1.34-14.14-2.07-21.25-2.19
		c-6.24-0.1-14.23,0.28-20.53,4.22c-1.54,0.97-2.68,1.97-3.46,3.06c-1.65,2.3-2.11,5.62-1.23,8.88c0.7,2.59,2.11,5.13,4.59,8.25
		c6.11,7.67,14.64,14.27,26.82,20.79c6.64,3.55,16.73,8.42,27.57,9.67c0.27,0.03,0.47,0.28,0.44,0.55
		C204.82,259.37,204.6,259.56,204.35,259.56z"></path></g></svg>
