<svg version="1.2" xmlns="http://www.w3.org/2000/svg" viewBox="0 0 414 321" width="414" height="321">
	<title>debate-list-empty-aPgoaatx-svg</title>
	<style>
		.s0 { fill: #32ffbb } 
		.s1 { fill: #009679 } 
		.s2 { fill: #000001 } 
		.s3 { fill: #ffffff } 
		.s4 { fill: #34f5af } 
	</style>
	<g id="items">
		<g id="item-6">
			<path class="s0" d="m57.2 229.3h4.6l12.4-93.5h57.9l4.6 35.1c0 0-2.5-1.8-2.6-1.7-6-3.7-13.2-5.1-20.2-6-8.5-1.1-17.1-1.5-25.3 0.2-6.6 1.6-13.4 3.4-19.1 7.2l-0.4 4.7c0 0 5.3-3.2 5.2-3.2 4.8-2.1 9.9-3 15.1-3.6 5-0.7 10-1.1 15.3-1.3 5.7 0.4 11.4 0.9 17 2 5.5 1.2 11 3.1 15.8 6.2l7.3 54.1 4.3-0.1c0 0-10.5-93.6-10.4-93.7 0.5 0.1 1.1 0 1.5-0.3 0.5-0.3 0.9-0.7 1-1.3 0.2-0.6-0.1-1.3-0.5-1.8-0.4-0.4-1-0.6-1.5-0.7 0 0-72.3 0.1-72.5 0.1-0.5 0.1-1.1 0.2-1.5 0.7-0.3 0.3-0.4 0.8-0.4 1.2 0 0.3 0.1 0.6 0.2 0.8 0.2 0.4 0.5 0.6 0.8 0.8q0.9 0.5 1.9 0.7z"/>
			<path class="s1" d="m65.5 131.9c-2.1-2-3.2-5-3-7.9 0.2-2.9 1.7-5.7 3.8-8.3-1.4-18.4-2.4-37.4 3.8-54.7 3-8.3 7.9-16.3 15.2-21.3 9.5-6.5 22.7-7.2 32.8-1.6 7.9 4.4 13.6 12 17 20.3 3.4 8.4 4.7 17.4 5.5 26.3 1 10.3 1.3 20.7-0.7 31.1 3.5 3 5 8.2 3.7 12.7-0.3 1.2-0.9 2.3-1.8 3.1-0.3 0.2-0.5 0.3-0.8 0.4-0.8 0.1-1.6-0.7-2.2-0.2z"/>
			<path fill-rule="evenodd" class="s2" d="m139.3 136.1h-72.6c-1.3 0-2.4-1.1-2.4-2.4 0-1.3 1.1-2.4 2.4-2.4h72.6c1.3 0 2.3 1.1 2.3 2.4 0 1.3-1 2.4-2.3 2.4zm-72.6-4c-0.9 0-1.6 0.7-1.6 1.6 0 0.9 0.7 1.6 1.6 1.6h72.6c0.8 0 1.5-0.7 1.5-1.6 0-0.9-0.7-1.6-1.5-1.6z"/>
			<path class="s2" d="m61.8 229.8h-4.7q-0.1 0-0.3-0.1-0.1-0.2-0.1-0.3l10.7-93.1c0-0.3 0.2-0.4 0.4-0.4 0.2 0 0.4 0.2 0.3 0.4l-10.5 92.7h3.9l12.2-93c0-0.2 0.2-0.4 0.5-0.4 0.2 0.1 0.3 0.3 0.3 0.5l-12.3 93.4c0 0.2-0.2 0.3-0.4 0.3z"/>
			<path class="s2" d="m149.2 229.8l-4.4-0.1c-0.2 0-0.4-0.1-0.4-0.3l-12.8-93.6c0-0.3 0.1-0.5 0.4-0.5 0.2 0 0.4 0.1 0.4 0.4l12.7 93.3h3.6l-10.4-92.8c-0.1-0.2 0.1-0.4 0.3-0.4 0.2 0 0.4 0.1 0.4 0.3l10.5 93.2q0 0.2-0.1 0.3-0.1 0.1-0.2 0.1z"/>
			<path class="s2" d="m69.2 175.8q-0.2 0-0.3-0.1c-0.1-0.2-0.1-0.4 0.1-0.6 5.6-4.6 13.1-6.1 19.7-7 16.2-2.2 30.5-1.1 42.5 3.5 2 0.7 4.3 1.7 6.2 3.2 0.2 0.2 0.2 0.4 0.1 0.6-0.2 0.2-0.4 0.2-0.6 0.1-1.8-1.5-4-2.5-6-3.2-11.8-4.5-26-5.6-42.1-3.4-6.5 0.8-13.8 2.3-19.3 6.8q-0.2 0.1-0.3 0.1z"/>
			<path class="s2" d="m136.5 171.2q-0.2 0-0.3-0.1c-6-4.7-13.8-6.4-20-7.3-8.7-1.4-16.5-1.5-23.7-0.6-8.5 1-16 3.6-22.4 7.5-0.2 0.1-0.5 0.1-0.6-0.1-0.1-0.2 0-0.4 0.1-0.6 6.6-4 14.2-6.6 22.8-7.6 7.3-1 15.2-0.8 24 0.6 6.2 0.9 14.1 2.6 20.3 7.5 0.2 0.1 0.2 0.4 0.1 0.6q-0.2 0.1-0.3 0.1z"/>
			<path class="s2" d="m132.5 123.5c-1.1 0-2.2-0.1-3.3-0.4-1-0.2-2-0.6-3-1-1.3-0.6-2.6-1.1-4-1.2-2-0.3-4 0.4-6.1 1.1-1.8 0.5-3.6 1.1-5.4 1.2-1.8 0-3.5-0.4-5.1-0.9-1.4-0.3-2.9-0.7-4.3-0.8-1.5 0-3 0.3-4.5 0.5-1.9 0.4-3.9 0.7-5.8 0.4-1.3-0.3-2.5-0.8-3.7-1.3-1.4-0.6-2.6-1.1-4-1.3-2.3-0.2-4.6 0.8-6.9 1.8q-0.5 0.2-0.9 0.4c-2.3 0.9-5.7 2.1-8.5 0.6-0.2-0.1-0.3-0.3-0.2-0.5 0.1-0.2 0.4-0.3 0.6-0.2 2.5 1.3 5.6 0.2 7.8-0.6q0.4-0.2 0.9-0.5c2.3-1 4.7-2 7.3-1.7 1.5 0.1 2.9 0.7 4.2 1.3 1.2 0.5 2.3 1 3.5 1.2 1.8 0.3 3.7 0 5.6-0.4 1.5-0.2 3.1-0.5 4.6-0.4 1.5 0 3 0.4 4.5 0.8 1.6 0.4 3.2 0.8 4.9 0.8 1.7-0.1 3.5-0.7 5.2-1.2 2-0.7 4.2-1.4 6.4-1.1 1.5 0.1 2.9 0.7 4.2 1.2 1 0.4 1.9 0.8 2.9 1.1 2.6 0.6 5.2 0.2 7.8-0.1 0.2 0 0.4 0.1 0.4 0.3 0.1 0.3-0.1 0.5-0.3 0.5-1.5 0.2-3.1 0.4-4.8 0.4z"/>
			<path class="s2" d="m67 116.3c-0.1 0-0.3-0.1-0.4-0.2-0.1-0.2 0-0.4 0.2-0.6 9.9-6 22.3-6.6 33.2-6.6 12.5 0 26.9 0.5 39.9 6.2 0.2 0.1 0.2 0.3 0.2 0.5-0.1 0.2-0.4 0.3-0.6 0.2-12.8-5.6-27.1-6.1-39.5-6.1-10.8 0-23 0.6-32.8 6.5q-0.1 0.1-0.2 0.1z"/>
		</g>
		<g id="item-5">
			<path class="s0" d="m262.8 229.3h4.6l12.4-93.5h57.9l4.7 35.1c0 0-2.5-1.8-2.6-1.7-6.1-3.7-13.3-5.1-20.3-6-8.4-1.1-17-1.5-25.2 0.2-6.7 1.6-13.5 3.4-19.2 7.2l-0.4 4.7c0 0 5.3-3.2 5.3-3.2 4.7-2.1 9.9-3 15-3.6 5-0.7 10-1.1 15.3-1.3 5.7 0.4 11.4 0.9 17 2 5.6 1.2 11.1 3.1 15.8 6.2l7.4 54.1 4.2-0.1c0 0-10.5-93.6-10.4-93.7 0.5 0.1 1.1 0 1.6-0.3 0.4-0.3 0.8-0.7 0.9-1.3 0.2-0.6 0-1.3-0.5-1.8-0.4-0.4-1-0.6-1.5-0.7 0 0-72.3 0.1-72.4 0.1-0.6 0.1-1.2 0.2-1.6 0.7-0.3 0.3-0.4 0.8-0.4 1.2 0 0.3 0.1 0.6 0.2 0.8 0.2 0.4 0.5 0.6 0.8 0.8q0.9 0.5 1.9 0.7z"/>
			<path class="s1" d="m271.1 131.9c-2.1-2-3.2-5-2.9-7.9 0.2-2.9 1.6-5.7 3.7-8.3-1.4-18.4-2.4-37.4 3.8-54.7 3-8.3 7.9-16.3 15.2-21.3 9.5-6.5 22.8-7.2 32.9-1.6 7.8 4.4 13.5 12 16.9 20.3 3.4 8.4 4.8 17.4 5.6 26.3 0.9 10.3 1.2 20.7-0.7 31.1 3.4 3 4.9 8.2 3.7 12.7-0.4 1.2-0.9 2.3-1.9 3.1-0.2 0.2-0.5 0.3-0.8 0.4-0.7 0.1-1.5-0.7-2.2-0.2z"/>
			<path fill-rule="evenodd" class="s2" d="m344.9 136.1h-72.5c-1.3 0-2.4-1.1-2.4-2.4 0-1.3 1.1-2.4 2.4-2.4h72.5c1.3 0 2.4 1.1 2.4 2.4 0 1.3-1.1 2.4-2.4 2.4zm-72.5-4c-0.9 0-1.6 0.7-1.6 1.6 0 0.9 0.7 1.6 1.6 1.6h72.5c0.9 0 1.6-0.7 1.6-1.6 0-0.9-0.7-1.6-1.6-1.6z"/>
			<path class="s2" d="m267.4 229.8h-4.6q-0.2 0-0.3-0.1-0.1-0.2-0.1-0.3l10.6-93.1c0-0.3 0.2-0.4 0.4-0.4 0.2 0 0.4 0.2 0.4 0.4l-10.6 92.7h3.9l12.2-93c0.1-0.2 0.3-0.4 0.5-0.4 0.2 0.1 0.4 0.3 0.3 0.5l-12.3 93.4c0 0.2-0.2 0.3-0.4 0.3z"/>
			<path class="s2" d="m354.8 229.8l-4.4-0.1c-0.2 0-0.4-0.1-0.4-0.3l-12.7-93.6c-0.1-0.3 0.1-0.5 0.3-0.5 0.2 0 0.4 0.1 0.4 0.4l12.7 93.3h3.6l-10.4-92.8c0-0.2 0.1-0.4 0.3-0.4 0.3 0 0.5 0.1 0.5 0.3l10.5 93.2q0 0.2-0.1 0.3-0.1 0.1-0.3 0.1z"/>
			<path class="s2" d="m274.8 175.8q-0.1 0-0.3-0.1c-0.1-0.2-0.1-0.4 0.1-0.6 5.6-4.6 13.1-6.1 19.7-7 16.2-2.2 30.5-1.1 42.5 3.5 2 0.7 4.3 1.7 6.2 3.2 0.2 0.2 0.2 0.4 0.1 0.6-0.2 0.2-0.4 0.2-0.6 0.1-1.8-1.5-4-2.5-6-3.2-11.8-4.5-26-5.6-42.1-3.4-6.5 0.8-13.8 2.3-19.3 6.8q-0.1 0.1-0.3 0.1z"/>
			<path class="s2" d="m342.1 171.2q-0.1 0-0.3-0.1c-6-4.7-13.8-6.4-19.9-7.3-8.8-1.4-16.5-1.5-23.8-0.6-8.4 1-16 3.6-22.4 7.5-0.2 0.1-0.4 0.1-0.6-0.1-0.1-0.2 0-0.4 0.2-0.6 6.5-4 14.1-6.6 22.7-7.6 7.3-1 15.2-0.8 24 0.6 6.2 0.9 14.2 2.6 20.3 7.5 0.2 0.1 0.2 0.4 0.1 0.6q-0.1 0.1-0.3 0.1z"/>
			<path class="s2" d="m338.2 123.5c-1.1 0-2.2-0.1-3.3-0.4-1.1-0.2-2.1-0.6-3-1-1.4-0.6-2.6-1.1-4-1.2-2.1-0.3-4.1 0.4-6.2 1.1-1.7 0.5-3.5 1.1-5.4 1.2-1.7 0-3.4-0.4-5.1-0.9-1.4-0.3-2.8-0.7-4.3-0.8-1.5 0-3 0.3-4.4 0.5-2 0.4-3.9 0.7-5.9 0.4-1.3-0.3-2.5-0.8-3.7-1.3-1.3-0.6-2.6-1.1-4-1.3-2.3-0.2-4.6 0.8-6.8 1.8q-0.5 0.2-1 0.4c-2.3 0.9-5.6 2.1-8.4 0.6-0.2-0.1-0.3-0.3-0.2-0.5 0.1-0.2 0.3-0.3 0.5-0.2 2.5 1.3 5.7 0.2 7.8-0.6q0.5-0.2 1-0.5c2.3-1 4.7-2 7.2-1.7 1.5 0.1 2.9 0.7 4.3 1.3 1.1 0.5 2.3 1 3.4 1.2 1.9 0.3 3.7 0 5.6-0.4 1.5-0.2 3.1-0.5 4.6-0.4 1.6 0 3.1 0.4 4.5 0.8 1.7 0.4 3.3 0.8 4.9 0.8 1.7-0.1 3.5-0.7 5.2-1.2 2.1-0.7 4.2-1.4 6.5-1.1 1.5 0.1 2.8 0.7 4.2 1.2 0.9 0.4 1.9 0.8 2.9 1.1 2.5 0.6 5.1 0.2 7.7-0.1 0.2 0 0.4 0.1 0.5 0.3 0 0.3-0.2 0.5-0.4 0.5-1.5 0.2-3.1 0.4-4.7 0.4z"/>
			<path class="s2" d="m272.6 116.3c-0.1 0-0.3-0.1-0.3-0.2-0.1-0.2-0.1-0.4 0.1-0.6 10-6 22.4-6.6 33.2-6.6 12.5 0 26.9 0.5 39.9 6.2 0.2 0.1 0.3 0.3 0.2 0.5-0.1 0.2-0.3 0.3-0.5 0.2-12.8-5.6-27.2-6.1-39.6-6.1-10.7 0-23 0.6-32.8 6.5q-0.1 0.1-0.2 0.1z"/>
		</g>
		<g id="item-4">
			<path class="s0" d="m160 229.3h4.6l12.4-93.5h57.8l4.7 35.1c0 0-2.5-1.8-2.6-1.7-6-3.7-13.2-5.1-20.3-6-8.4-1.1-17-1.5-25.2 0.2-6.6 1.6-13.4 3.4-19.1 7.2l-0.4 4.7c0 0 5.3-3.2 5.2-3.2 4.7-2.1 9.9-3 15-3.6 5-0.7 10.1-1.1 15.4-1.3 5.7 0.4 11.4 0.9 16.9 2 5.6 1.2 11.1 3.1 15.9 6.2l7.3 54.1 4.3-0.1c0 0-10.5-93.6-10.5-93.7 0.6 0.1 1.1 0 1.6-0.3 0.5-0.3 0.8-0.7 1-1.3 0.1-0.6-0.1-1.3-0.6-1.8-0.4-0.4-0.9-0.6-1.5-0.7 0 0-72.2 0.1-72.4 0.1-0.6 0.1-1.2 0.2-1.6 0.7-0.2 0.3-0.3 0.8-0.3 1.2 0 0.3 0 0.6 0.2 0.8 0.2 0.4 0.5 0.6 0.8 0.8q0.9 0.5 1.9 0.7z"/>
			<path class="s1" d="m168.3 131.9c-2.2-2-3.2-5-3-7.9 0.2-2.9 1.6-5.7 3.7-8.3-1.3-18.4-2.4-37.4 3.9-54.7 3-8.3 7.8-16.3 15.1-21.3 9.5-6.5 22.8-7.2 32.9-1.6 7.9 4.4 13.5 12 16.9 20.3 3.5 8.4 4.8 17.4 5.6 26.3 1 10.3 1.2 20.7-0.7 31.1 3.5 3 5 8.2 3.7 12.7-0.3 1.2-0.9 2.3-1.9 3.1-0.2 0.2-0.4 0.3-0.7 0.4-0.8 0.1-1.6-0.7-2.2-0.2z"/>
			<path fill-rule="evenodd" class="s2" d="m242.1 136.1h-72.6c-1.3 0-2.4-1.1-2.4-2.4 0-1.3 1.1-2.4 2.4-2.4h72.6c1.3 0 2.3 1.1 2.3 2.4 0 1.3-1 2.4-2.3 2.4zm-72.6-4c-0.9 0-1.6 0.7-1.6 1.6 0 0.9 0.7 1.6 1.6 1.6h72.6c0.8 0 1.5-0.7 1.5-1.6 0-0.9-0.7-1.6-1.5-1.6z"/>
			<path class="s2" d="m164.6 229.8h-4.7q-0.2 0-0.3-0.1-0.1-0.2-0.1-0.3l10.6-93.1c0.1-0.3 0.3-0.4 0.5-0.4 0.2 0 0.3 0.2 0.3 0.4l-10.5 92.7h3.8l12.3-93c0-0.2 0.2-0.4 0.4-0.4 0.3 0.1 0.4 0.3 0.4 0.5l-12.3 93.4c-0.1 0.2-0.2 0.3-0.4 0.3z"/>
			<path class="s2" d="m251.9 229.8l-4.4-0.1c-0.2 0-0.3-0.1-0.4-0.3l-12.7-93.6c0-0.3 0.1-0.5 0.3-0.5 0.3 0 0.5 0.1 0.5 0.4l12.7 93.3h3.6l-10.5-92.8c0-0.2 0.2-0.4 0.4-0.4 0.2 0 0.4 0.1 0.4 0.3l10.5 93.2q0 0.2-0.1 0.3-0.1 0.1-0.3 0.1z"/>
			<path class="s2" d="m172 175.8q-0.2 0-0.3-0.1c-0.2-0.2-0.1-0.4 0-0.6 5.7-4.6 13.2-6.1 19.7-7 16.3-2.2 30.6-1.1 42.6 3.5 2 0.7 4.3 1.7 6.2 3.2 0.2 0.2 0.2 0.4 0 0.6-0.1 0.2-0.3 0.2-0.5 0.1-1.8-1.5-4.1-2.5-6-3.2-11.9-4.5-26-5.6-42.2-3.4-6.4 0.8-13.7 2.3-19.2 6.8q-0.2 0.1-0.3 0.1z"/>
			<path class="s2" d="m239.2 171.2q-0.1 0-0.2-0.1c-6-4.7-13.8-6.4-20-7.3-8.7-1.4-16.5-1.5-23.8-0.6-8.4 1-15.9 3.6-22.4 7.5-0.2 0.1-0.4 0.1-0.5-0.1-0.1-0.2-0.1-0.4 0.1-0.6 6.5-4 14.2-6.6 22.7-7.6 7.4-1 15.2-0.8 24 0.6 6.3 0.9 14.2 2.6 20.4 7.5 0.2 0.1 0.2 0.4 0.1 0.6q-0.2 0.1-0.4 0.1z"/>
			<path class="s2" d="m235.3 123.5c-1.1 0-2.2-0.1-3.3-0.4-1-0.2-2-0.6-3-1-1.3-0.6-2.6-1.1-4-1.2-2-0.3-4 0.4-6.1 1.1-1.8 0.5-3.6 1.1-5.5 1.2-1.7 0-3.4-0.4-5-0.9-1.4-0.3-2.9-0.7-4.4-0.8-1.4 0-2.9 0.3-4.4 0.5-1.9 0.4-3.9 0.7-5.9 0.4-1.2-0.3-2.5-0.8-3.6-1.3-1.4-0.6-2.6-1.1-4-1.3-2.4-0.2-4.7 0.8-6.9 1.8q-0.5 0.2-1 0.4c-2.2 0.9-5.6 2.1-8.4 0.6-0.2-0.1-0.3-0.3-0.2-0.5 0.1-0.2 0.4-0.3 0.6-0.2 2.5 1.3 5.6 0.2 7.7-0.6q0.5-0.2 1-0.5c2.3-1 4.7-2 7.3-1.7 1.5 0.1 2.9 0.7 4.2 1.3 1.1 0.5 2.3 1 3.5 1.2 1.8 0.3 3.6 0 5.6-0.4 1.5-0.2 3-0.5 4.6-0.4 1.5 0 3 0.4 4.5 0.8 1.6 0.4 3.2 0.8 4.8 0.8 1.8-0.1 3.5-0.7 5.2-1.2 2.1-0.7 4.3-1.4 6.5-1.1 1.5 0.1 2.9 0.7 4.2 1.2 1 0.4 1.9 0.8 2.9 1.1 2.5 0.6 5.2 0.2 7.8-0.1 0.2 0 0.4 0.1 0.4 0.3 0 0.3-0.1 0.5-0.3 0.5-1.5 0.2-3.2 0.4-4.8 0.4z"/>
			<path class="s2" d="m169.8 116.3c-0.2 0-0.3-0.1-0.4-0.2-0.1-0.2 0-0.4 0.2-0.6 9.9-6 22.3-6.6 33.2-6.6 12.5 0 26.9 0.5 39.8 6.2 0.2 0.1 0.3 0.3 0.2 0.5-0.1 0.2-0.3 0.3-0.5 0.2-12.8-5.6-27.1-6.1-39.5-6.1-10.8 0-23 0.6-32.8 6.5q-0.1 0.1-0.2 0.1z"/>
		</g>
		<g id="item-3">
			<path class="s0" d="m19.4 313.4h5.7l15.6-117.2h72.6l5.8 44c0 0-3.1-2.2-3.2-2.1-7.6-4.7-16.6-6.5-25.5-7.6-10.5-1.4-21.3-1.9-31.6 0.3-8.4 2-16.9 4.2-24 9l-0.5 5.9c0 0 6.6-4 6.5-4 6-2.6 12.5-3.8 18.9-4.6 6.3-0.8 12.6-1.2 19.3-1.5 7.1 0.5 14.2 1.1 21.2 2.5 7 1.5 13.9 3.9 19.9 7.8l9.2 67.8 5.4-0.1c0 0-13.2-117.5-13.1-117.5 0.6 0.1 1.4 0 2-0.4 0.5-0.4 1-0.9 1.2-1.6 0.2-0.8-0.1-1.7-0.7-2.3-0.5-0.5-1.2-0.7-1.9-0.9 0 0-90.6 0.2-90.9 0.1-0.7 0.2-1.4 0.3-1.9 0.9-0.4 0.4-0.5 0.9-0.5 1.5 0 0.4 0.1 0.7 0.3 1.1 0.2 0.4 0.6 0.6 1 0.9q1.1 0.6 2.4 0.9z"/>
			<path class="s1" d="m29.8 191.3c-2.7-2.5-4-6.3-3.8-9.9 0.3-3.7 2.1-7.2 4.7-10.5-1.7-23-3-46.8 4.8-68.6 3.8-10.4 9.9-20.4 19-26.7 12-8.2 28.6-9 41.3-2 9.8 5.5 16.9 15 21.2 25.5 4.3 10.4 6 21.7 7 33 1.2 12.8 1.6 25.9-0.9 38.9 4.4 3.9 6.3 10.4 4.7 16-0.5 1.4-1.2 2.9-2.4 3.9-0.2 0.2-0.6 0.4-0.9 0.5-1 0.1-2-0.9-2.8-0.3z"/>
			<path fill-rule="evenodd" class="s2" d="m122.3 196.5h-91c-1.6 0-3-1.3-3-3 0-1.6 1.4-3 3-3h91c1.7 0 3 1.4 3 3 0 1.7-1.3 3-3 3zm-91-5c-1.1 0-2 0.9-2 2 0 1.1 0.9 2 2 2h91c1.1 0 2-0.9 2-2 0-1.1-0.9-2-2-2z"/>
			<path class="s2" d="m25.1 314.1h-5.8q-0.3 0-0.4-0.2-0.1-0.1-0.1-0.4l13.3-116.8c0-0.2 0.3-0.4 0.6-0.4 0.2 0 0.4 0.3 0.4 0.5l-13.3 116.3h4.9l15.4-116.7c0-0.3 0.2-0.5 0.5-0.5 0.3 0.1 0.5 0.3 0.4 0.6l-15.4 117.2c0 0.2-0.2 0.4-0.5 0.4z"/>
			<path class="s2" d="m134.7 314h-5.5c-0.2 0-0.5-0.2-0.5-0.4l-16-117.5c0-0.3 0.2-0.5 0.5-0.6 0.2 0 0.5 0.2 0.5 0.5l15.9 117h4.6l-13.1-116.3c-0.1-0.3 0.1-0.6 0.4-0.6 0.3 0 0.5 0.2 0.6 0.5l13.1 116.9q0 0.2-0.1 0.4-0.2 0.1-0.4 0.1z"/>
			<path class="s2" d="m34.4 246.4q-0.2 0-0.4-0.2c-0.2-0.2-0.1-0.5 0.1-0.7 7.1-5.8 16.5-7.7 24.7-8.8 20.4-2.8 38.3-1.3 53.4 4.3 2.5 1 5.4 2.2 7.8 4.1 0.2 0.2 0.2 0.5 0 0.7-0.1 0.3-0.5 0.3-0.7 0.1-2.2-1.8-5-3-7.5-3.9-14.8-5.6-32.6-7.1-52.9-4.4-8.1 1.1-17.3 3-24.2 8.7q-0.1 0.1-0.3 0.1z"/>
			<path class="s2" d="m118.8 240.6q-0.2 0-0.3-0.1c-7.6-6-17.4-8.1-25.1-9.2-10.9-1.7-20.7-2-29.8-0.8-10.6 1.3-20 4.5-28.1 9.5-0.2 0.1-0.5 0-0.7-0.2-0.1-0.2-0.1-0.5 0.2-0.7 8.2-5 17.8-8.3 28.5-9.6 9.2-1.2 19.1-0.9 30.1 0.8 7.8 1.1 17.8 3.3 25.5 9.4 0.2 0.1 0.3 0.5 0.1 0.7q-0.2 0.2-0.4 0.2z"/>
			<path class="s2" d="m113.9 180.7c-1.4 0-2.8-0.1-4.2-0.4-1.3-0.3-2.5-0.9-3.7-1.3-1.7-0.7-3.3-1.4-5-1.6-2.6-0.2-5.1 0.6-7.7 1.4-2.2 0.7-4.5 1.5-6.8 1.5-2.2 0.1-4.4-0.5-6.4-1-1.8-0.5-3.6-0.9-5.4-1-1.9-0.1-3.8 0.3-5.6 0.6-2.4 0.4-4.9 0.9-7.4 0.4-1.6-0.3-3.1-0.9-4.6-1.5-1.7-0.8-3.3-1.5-5-1.6-2.9-0.3-5.8 0.9-8.6 2.1q-0.6 0.3-1.2 0.6c-2.9 1.2-7.1 2.6-10.6 0.8-0.3-0.2-0.4-0.5-0.2-0.7 0.1-0.3 0.4-0.3 0.6-0.2 3.2 1.6 7.1 0.3 9.8-0.9q0.6-0.2 1.2-0.5c2.9-1.3 5.9-2.6 9.1-2.2 1.9 0.2 3.6 0.9 5.3 1.6 1.4 0.6 2.9 1.3 4.4 1.5 2.3 0.5 4.6 0 7-0.4 1.9-0.3 3.8-0.7 5.8-0.6 1.9 0.1 3.8 0.6 5.6 1 2.1 0.6 4.1 1.1 6.1 1 2.2 0 4.4-0.7 6.5-1.4 2.7-0.9 5.4-1.8 8.2-1.5 1.8 0.2 3.6 1 5.2 1.6 1.2 0.5 2.4 1 3.7 1.3 3.1 0.8 6.5 0.3 9.7-0.1 0.3 0 0.5 0.2 0.6 0.5 0 0.2-0.2 0.5-0.5 0.5-1.9 0.3-3.9 0.5-5.9 0.5z"/>
			<path class="s2" d="m31.6 171.7q-0.2 0-0.4-0.3c-0.1-0.2-0.1-0.5 0.2-0.6 12.5-7.7 28-8.3 41.6-8.3 15.7 0 33.8 0.5 50.1 7.7 0.2 0.1 0.3 0.4 0.2 0.6-0.1 0.3-0.4 0.4-0.6 0.3-16.1-7.1-34.1-7.6-49.6-7.6-13.5 0-28.9 0.6-41.2 8.1q-0.1 0.1-0.3 0.1z"/>
		</g>
		<g id="item-2">
			<path class="s0" d="m277.4 313.4h5.7l15.6-117.2h72.6l5.8 44c0 0-3.1-2.2-3.2-2.1-7.6-4.7-16.6-6.5-25.5-7.6-10.5-1.4-21.3-1.9-31.6 0.3-8.4 2-16.9 4.2-24 9l-0.5 5.9c0 0 6.6-4 6.5-4 6-2.6 12.5-3.8 18.9-4.6 6.3-0.8 12.6-1.2 19.3-1.5 7.1 0.5 14.2 1.1 21.2 2.5 7 1.5 13.9 3.9 19.9 7.8l9.2 67.8 5.4-0.1c0 0-13.2-117.5-13.1-117.5 0.6 0.1 1.4 0 2-0.4 0.5-0.4 1-0.9 1.2-1.6 0.2-0.8-0.1-1.7-0.7-2.3-0.5-0.5-1.2-0.7-1.9-0.9 0 0-90.6 0.2-90.9 0.1-0.7 0.2-1.4 0.3-1.9 0.9-0.4 0.4-0.5 0.9-0.5 1.5 0 0.4 0.1 0.7 0.3 1.1 0.2 0.4 0.6 0.6 1 0.9q1.1 0.6 2.4 0.9z"/>
			<path class="s1" d="m287.8 191.3c-2.7-2.5-4-6.3-3.8-9.9 0.3-3.7 2.1-7.2 4.7-10.5-1.7-23-3-46.8 4.8-68.6 3.8-10.4 9.9-20.4 19-26.7 12-8.2 28.6-9 41.3-2 9.8 5.5 16.9 15 21.2 25.5 4.3 10.4 6 21.7 7 33 1.2 12.8 1.6 25.9-0.9 38.9 4.4 3.9 6.3 10.4 4.7 16-0.5 1.4-1.2 2.9-2.4 3.9-0.2 0.2-0.6 0.4-0.9 0.5-1 0.1-2-0.9-2.8-0.3z"/>
			<path fill-rule="evenodd" class="s2" d="m380.3 196.5h-91c-1.6 0-3-1.3-3-3 0-1.6 1.4-3 3-3h91c1.7 0 3 1.4 3 3 0 1.7-1.3 3-3 3zm-91-5c-1.1 0-2 0.9-2 2 0 1.1 0.9 2 2 2h91c1.1 0 2-0.9 2-2 0-1.1-0.9-2-2-2z"/>
			<path class="s2" d="m283.1 314.1h-5.8q-0.3 0-0.4-0.2-0.1-0.1-0.1-0.4l13.3-116.8c0-0.2 0.3-0.4 0.5-0.4 0.3 0 0.5 0.3 0.5 0.5l-13.3 116.3h4.9l15.4-116.7c0-0.3 0.2-0.5 0.5-0.5 0.3 0.1 0.5 0.3 0.5 0.6l-15.5 117.2c0 0.2-0.2 0.4-0.5 0.4z"/>
			<path class="s2" d="m392.7 314h-5.5c-0.2 0-0.4-0.2-0.5-0.4l-16-117.5c0-0.3 0.2-0.5 0.5-0.6 0.2 0 0.5 0.2 0.5 0.5l15.9 117h4.6l-13.1-116.3c-0.1-0.3 0.1-0.6 0.4-0.6 0.3 0 0.5 0.2 0.6 0.5l13.1 116.9q0 0.2-0.1 0.4-0.2 0.1-0.4 0.1z"/>
			<path class="s2" d="m292.4 246.4q-0.2 0-0.4-0.2c-0.1-0.2-0.1-0.5 0.1-0.7 7.1-5.8 16.5-7.7 24.7-8.8 20.4-2.8 38.3-1.3 53.4 4.3 2.5 1 5.4 2.2 7.8 4.1 0.2 0.2 0.2 0.5 0 0.7-0.1 0.3-0.4 0.3-0.7 0.1-2.2-1.8-5-3-7.5-3.9-14.8-5.6-32.6-7.1-52.9-4.4-8.1 1.1-17.3 3-24.2 8.7q-0.1 0.1-0.3 0.1z"/>
			<path class="s2" d="m376.8 240.6q-0.2 0-0.3-0.1c-7.6-6-17.4-8.1-25.1-9.2-10.9-1.7-20.7-2-29.8-0.8-10.6 1.3-20 4.5-28.1 9.5-0.2 0.1-0.5 0-0.7-0.2-0.1-0.2-0.1-0.5 0.2-0.7 8.2-5 17.8-8.3 28.5-9.6 9.2-1.2 19.1-0.9 30.1 0.8 7.8 1.1 17.8 3.3 25.5 9.4 0.2 0.1 0.3 0.5 0.1 0.7q-0.2 0.2-0.4 0.2z"/>
			<path class="s2" d="m371.9 180.7c-1.4 0-2.8-0.1-4.2-0.4-1.3-0.3-2.5-0.9-3.7-1.3-1.7-0.7-3.3-1.4-5-1.6-2.6-0.2-5.1 0.6-7.7 1.4-2.2 0.7-4.5 1.5-6.8 1.5-2.2 0.1-4.4-0.5-6.4-1-1.8-0.5-3.6-0.9-5.4-1-1.9-0.1-3.8 0.3-5.6 0.6-2.4 0.4-4.9 0.9-7.4 0.4-1.6-0.3-3.1-0.9-4.6-1.5-1.7-0.8-3.3-1.5-5-1.6-2.9-0.3-5.8 0.9-8.6 2.1q-0.6 0.3-1.2 0.6c-2.9 1.2-7.1 2.6-10.6 0.8-0.3-0.2-0.4-0.5-0.2-0.7 0.1-0.3 0.4-0.3 0.6-0.2 3.2 1.6 7.1 0.3 9.8-0.9q0.6-0.2 1.2-0.5c2.9-1.3 5.9-2.6 9.1-2.2 1.9 0.2 3.6 0.9 5.3 1.6 1.4 0.6 2.9 1.3 4.4 1.5 2.3 0.5 4.6 0 7-0.4 1.9-0.3 3.8-0.7 5.8-0.6 1.9 0.1 3.8 0.6 5.6 1 2.1 0.6 4.1 1.1 6.1 1 2.2 0 4.4-0.7 6.5-1.4 2.7-0.9 5.4-1.8 8.2-1.5 1.8 0.2 3.6 1 5.2 1.6 1.2 0.5 2.4 1 3.7 1.3 3.1 0.8 6.5 0.3 9.7-0.1 0.3 0 0.5 0.2 0.5 0.5 0.1 0.2-0.1 0.5-0.4 0.5-1.8 0.3-3.9 0.5-5.9 0.5z"/>
			<path class="s2" d="m289.6 171.7q-0.2 0-0.4-0.3c-0.1-0.2-0.1-0.5 0.2-0.6 12.5-7.7 28-8.3 41.6-8.3 15.7 0 33.8 0.5 50.1 7.7 0.2 0.1 0.4 0.4 0.2 0.6-0.1 0.3-0.4 0.4-0.6 0.3-16.1-7.1-34.1-7.6-49.6-7.6-13.5 0-28.9 0.6-41.2 8.1q-0.1 0.1-0.3 0.1z"/>
		</g>
		<g id="item-1_2_">
			<path class="s0" d="m148.3 313.4h5.8l15.5-117.2h72.6l5.9 44c0 0-3.2-2.2-3.3-2.1-7.6-4.7-16.6-6.5-25.4-7.6-10.6-1.4-21.4-1.9-31.7 0.3-8.3 2-16.9 4.2-24 9l-0.5 5.9c0 0 6.7-4 6.6-4 5.9-2.6 12.4-3.8 18.9-4.6 6.2-0.8 12.5-1.2 19.2-1.5 7.1 0.5 14.3 1.1 21.3 2.5 7 1.5 13.9 3.9 19.9 7.8l9.2 67.8 5.3-0.1c0 0-13.2-117.5-13.1-117.5 0.7 0.1 1.4 0 2-0.4 0.6-0.4 1.1-0.9 1.2-1.6 0.2-0.8-0.1-1.7-0.7-2.3-0.5-0.5-1.2-0.7-1.9-0.9 0 0-90.6 0.2-90.8 0.1-0.7 0.2-1.5 0.3-2 0.9-0.3 0.4-0.5 0.9-0.4 1.5 0 0.4 0 0.7 0.2 1.1 0.3 0.4 0.7 0.6 1.1 0.9q1.1 0.6 2.3 0.9z"/>
			<path class="s1" d="m158.7 191.3c-2.6-2.5-4-6.3-3.7-9.9 0.3-3.7 2-7.2 4.7-10.5-1.7-23-3-46.8 4.8-68.6 3.8-10.4 9.9-20.4 19-26.7 11.9-8.2 28.6-9 41.2-2 9.9 5.5 17 15 21.3 25.5 4.3 10.4 6 21.7 7 33 1.2 12.8 1.5 25.9-0.9 38.9 4.4 3.9 6.3 10.4 4.6 16-0.4 1.4-1.1 2.9-2.3 3.9-0.3 0.2-0.6 0.4-1 0.5-0.9 0.1-1.9-0.9-2.7-0.3z"/>
			<path fill-rule="evenodd" class="s2" d="m251.3 196.5h-91c-1.7 0-3-1.3-3-3 0-1.6 1.3-3 3-3h91c1.6 0 3 1.4 3 3 0 1.7-1.4 3-3 3zm-91-5c-1.1 0-2 0.9-2 2 0 1.1 0.9 2 2 2h91c1.1 0 2-0.9 2-2 0-1.1-0.9-2-2-2z"/>
			<path class="s2" d="m154.1 314.1h-5.9q-0.2 0-0.3-0.2-0.2-0.1-0.2-0.4l13.4-116.8c0-0.2 0.2-0.4 0.5-0.4 0.3 0 0.5 0.3 0.5 0.5l-13.3 116.3h4.9l15.3-116.7c0.1-0.3 0.3-0.5 0.6-0.5 0.3 0.1 0.5 0.3 0.4 0.6l-15.4 117.2c0 0.2-0.3 0.4-0.5 0.4z"/>
			<path class="s2" d="m263.7 314h-5.5c-0.3 0-0.5-0.2-0.5-0.4l-16-117.5c0-0.3 0.1-0.5 0.4-0.6 0.3 0 0.6 0.2 0.6 0.5l15.9 117h4.5l-13.1-116.3c0-0.3 0.2-0.5 0.5-0.6 0.2 0 0.5 0.2 0.5 0.5l13.2 116.9q0 0.2-0.1 0.4-0.2 0.1-0.4 0.1z"/>
			<path class="s2" d="m163.4 246.4q-0.3 0-0.4-0.2c-0.2-0.2-0.1-0.5 0.1-0.7 7-5.8 16.4-7.7 24.7-8.8 20.3-2.8 38.3-1.3 53.3 4.3 2.5 1 5.4 2.2 7.8 4.1 0.2 0.2 0.3 0.5 0.1 0.7-0.2 0.3-0.5 0.3-0.7 0.1-2.3-1.8-5.1-3-7.5-3.9-14.9-5.6-32.7-7.1-52.9-4.4-8.1 1.1-17.3 3-24.2 8.7q-0.1 0.1-0.3 0.1z"/>
			<path class="s2" d="m247.8 240.6q-0.2 0-0.4-0.1c-7.5-6-17.3-8.1-25-9.2-10.9-1.7-20.7-2-29.9-0.8-10.5 1.3-20 4.5-28 9.5-0.3 0.1-0.6 0-0.7-0.2-0.2-0.2-0.1-0.5 0.1-0.7 8.2-5 17.8-8.3 28.5-9.6 9.3-1.2 19.1-0.9 30.1 0.8 7.9 1.1 17.8 3.3 25.6 9.4 0.2 0.1 0.2 0.5 0 0.7q-0.1 0.2-0.3 0.2z"/>
			<path class="s2" d="m242.8 180.7c-1.4 0-2.7-0.1-4.1-0.4-1.3-0.3-2.6-0.9-3.8-1.3-1.7-0.7-3.2-1.4-5-1.6-2.6-0.2-5 0.6-7.7 1.4-2.2 0.7-4.5 1.5-6.8 1.5-2.2 0.1-4.3-0.5-6.4-1-1.7-0.5-3.6-0.9-5.4-1-1.8-0.1-3.7 0.3-5.6 0.6-2.4 0.4-4.9 0.9-7.3 0.4-1.6-0.3-3.2-0.9-4.6-1.5-1.7-0.8-3.3-1.5-5-1.6-3-0.3-5.9 0.9-8.7 2.1q-0.6 0.3-1.2 0.6c-2.8 1.2-7 2.6-10.6 0.8-0.2-0.2-0.3-0.5-0.2-0.7 0.1-0.3 0.4-0.3 0.7-0.2 3.1 1.6 7.1 0.3 9.7-0.9q0.6-0.2 1.2-0.5c2.9-1.3 6-2.6 9.2-2.2 1.8 0.2 3.6 0.9 5.3 1.6 1.4 0.6 2.8 1.3 4.3 1.5 2.3 0.5 4.6 0 7.1-0.4 1.8-0.3 3.8-0.7 5.7-0.6 2 0.1 3.8 0.6 5.7 1 2.1 0.6 4 1.1 6.1 1 2.2 0 4.4-0.7 6.5-1.4 2.6-0.9 5.3-1.8 8.1-1.5 1.9 0.2 3.6 1 5.3 1.6 1.2 0.5 2.4 1 3.6 1.3 3.2 0.8 6.5 0.3 9.7-0.1 0.3 0 0.6 0.2 0.6 0.5 0 0.2-0.2 0.5-0.4 0.5-1.9 0.3-3.9 0.5-6 0.5z"/>
			<path class="s2" d="m160.6 171.7q-0.3 0-0.4-0.3c-0.2-0.2-0.1-0.5 0.1-0.6 12.5-7.7 28.1-8.3 41.7-8.3 15.7 0 33.8 0.5 50 7.7 0.3 0.1 0.4 0.4 0.3 0.6-0.1 0.3-0.4 0.4-0.7 0.3-16-7.1-34-7.6-49.6-7.6-13.5 0-28.9 0.6-41.1 8.1q-0.2 0.1-0.3 0.1z"/>
		</g>
	</g>
	<g id="character">
		<path class="s2" d="m198.4 44.1c-1.4-5.8-0.8-12 1.4-17.6 2.3-5.5 6.1-10.4 10.9-13.9 2.3-1.7 4.8-3.2 7.5-4 5.9-1.8 12.8-0.2 17.6 4.2 2.1 0.6 3.8 2.2 4.9 4.2 1 2 1.4 4.2 1.5 6.4 0.3 4.9-0.7 9.8-0.2 14.6 0.2 1.9 0.7 3.8 2 5.2 0.1 0.1 0.3 0.3 0.3 0.5-0.1 0.2-0.3 0.3-0.5 0.4-2.6 1.3-5.6 2.1-7.9 3.9-1.5 1.2-2.6 2.8-4.1 4-2 1.7-4.5 2.6-7 3.2-1.5 0.4-3 0.7-4.5 0.3-2-0.5-3.5-2.1-5.1-3.5-2.8-2.4-6.2-4.1-9.7-4.9-2.3-0.5-5-0.8-7.1-3z"/>
		<path class="s3" d="m195.1 128c4.2 3.6 10.1 4.9 15.4 3.4 1.3-0.4 2.7-1 4.1-1.1 1.5-0.1 3.1 0.3 4.3-0.6 0 0 13.7-5.1 13.9-4.9 11.7-3.6 23.6-6.9 35.9-7.2 7.5-0.9 15.2-0.5 22.6 1.2 4.1 0.9 8.3 2.3 11.4 5.2 3.1 2.8 4.9 7.5 3.4 11.4-0.7 1.7-1.9 3.1-3.1 4.4-4 4.1-8.7 7.4-13.7 10.6-11.8 6.8-26 7.9-38.8 12.7-1.3 0.5-2.7 1.1-3.7 2.1-0.4 0.3-0.8 0.8-1.3 1.1-1.1 0.6-2.4 0-3.7-0.3-2-0.4-4 0-6 0.2-2 0.1-4.2-0.1-6-1.5q-6.7-0.9-13.4-2.4c-0.6-0.1-1.2-0.2-1.8-0.1-0.6 0.1-1.1 0.5-1.6 0.7-1.8 0.9-3.8 0.8-5.8 0.7q-5.4-0.4-10.8-0.7c-0.8-0.1-1.6-0.1-2.4-0.4-0.5-0.2-1-0.6-1.6-0.7-1.4-0.5-2.9 0.2-4.3 0.9-5.9 2.8-12.1 5.1-18.4 6.9-0.9 0.2-1.9 0.5-2.9 0.3-0.5 0-1-0.2-1.6-0.3-2-0.2-4.1 1.3-6 0.5 0 0-0.2-0.2-0.9-0.2-11.7-1.9-22.6-7.4-32.7-13.8-9.2-5.7-18.2-12.4-23.4-21.8-0.9-2.4-1.9-4.9-1.7-7.5 0.3-3.2 2.3-6 4.9-7.9 2.6-1.9 5.8-2.9 9-3.5 13.4-2.8 27.3-0.4 40.9 2l14.9 3.8z"/>
		<path class="s4" d="m194.5 49.8c1.9-0.5 3.9-0.6 5.8-0.1 3 0.7 5.6 2.6 8.7 3.4 2.6 0.7 5.4 0.5 7.8 1.5 2.3 0.9 4 2.7 6.1 3.9 4.4 2.4 9.9 1.8 15.1 3.6 2-0.5 4-0.7 5.9-0.3 1.9 0.4 3.8 1.5 4.9 3.1 0 0 12.2 25.7 12.2 25.7-0.9 1.3-2.5 1.6-4 1.9-3.9 0.7-7.8 2.1-10.4 4.9-0.7 0.8-1.3 1.7-2.1 2.3-0.8 0.7-1.7 1.3-2.8 1.2 0 0-7.6-15.7-7.7-15.1 0.1 3.5-1.8 7-4.7 9-1.5 0.9-3.1 1.5-4.6 2.4-2.8 1.6-4.9 4.3-6.6 7.1-2.4 4.1-4.2 9-3.2 13.7 0.4 1.9 1.4 3.9 3.2 4.7 0.8 0.3 1.8 0.5 2.4 1.2 1.1 1.2 0.2 3.3 1.2 4.6l-17.4 8.8-5.4-3.2-17.2-8c0 0-16.8-6-16.9-6.4-6.4-16.5-7-35.1-2-52.2q-5.8 3.8-11.5 7.7c-0.9 0.6-1.9 1.2-3 1.3-1.4 0.1-2.7-0.7-3.6-1.7-0.9-1-1.5-2.3-2.2-3.5-2.4-3.9-6-7.2-7.7-11.5-0.4-1-0.6-2.2 0.1-3 0 0 22.6-14.6 22.8-14.3 2.5-1.2 5.1-2.5 7.9-2.8 2.8-0.4 5.7 0.2 8.3 1.2 2.6 1 5 2.5 7.3 4.1z"/>
		<path class="s0" d="m235.6 31.4c-1 3.1-2.4 6.2-4 9.1 1.7 0.4 3 1.7 4.5 2.5 1.1 0.6 2.3 1 3.3 1.6 1 0.7 1.9 1.8 1.8 3l0.8 3.6c0 0 14.8 40.8 15 40.7 0.7-0.3 1.4-0.7 2.1-0.8 0.8-0.2 1.6-0.1 2.2 0.3 0 0 5.1 10.4 4.9 10.6 2 4.9 2.5 10.4 1.4 15.6l-6.9 0.7c0 0-7.5 1.1-7.5 1-2.3-1-4.3-2.6-5.8-4.6 0 0-6-14.6-6-14.8 0.5-1.5 0.3-3.2-0.4-4.6 0 0-10.6-36.8-10.8-37-1.2-0.4-1.6-1.9-1.7-3.1q-0.2-2.3 0.2-4.5-1.1 0.3-2.2 0.6c-0.1 0-0.2 0-0.3 0.2-0.1 0.1-0.1 0.2-0.1 0.3 0.1 1.4 1.4 2.5 1.6 3.9 0 0.2 0 0.4 0 0.5-0.2 0.5-0.8 0.6-1.3 0.5-1.3-0.2-2.4-1-3.1-2-0.8-1.1-1.3-2.2-1.8-3.4-2.7 3-5.9 6.1-10 7.1-0.8 1.2-2.2 2-3.7 2.2-1.5 0.2-3-0.1-4.4-0.5-2.4-0.6-4.8-1.6-6.6-3.3-1.8-1.6-3.1-4.1-2.8-6.6 0 0 11.3-18 11.4-17.9 0.1-2.1 0.7-4.2 1.6-6.2 0.6-1.5 1.5-2.9 2.7-3.9 0.6-0.6 1.5-1 2.2-0.6 0.5 0.2 0.7 0.7 1.2 0.9 0.3 0.2 0.7 0.3 1 0.3q2 0.2 3.9 0.4c1.5 0.1 2.9 0.2 4.4 0.2 3.5-0.2 6.7-1.4 10-2.3 0.4 1.4 0.2 2.9 0.5 4.3 0.3 1.8 1.3 3.4 2.7 6z"/>
		<path class="s0" d="m134.4 58.8q0.5-0.4 1-0.8c0.2-0.1 0.3-0.2 0.4-0.2 0.2 0 0.4 0.1 0.5 0.2 3.9 3.2 8 6.5 10.7 10.7 0.2 0.4 0.4 0.8 0.3 1.2-0.1 0.4-0.5 0.6-0.8 0.7q-2 1.2-4.1 2.2c0 0-0.1 0-0.2 0 0-0.1 0.1-0.2 0.1-0.1 0 0 17 39.8 17.2 39.8 0.9 0 1.8 0 2.5 0.6 0.6 0.6 0.8 1.4 1.2 2.1 0.6 1.1 1.7 1.7 2.6 2.5 0.8 0.8 1.6 1.9 1.3 3.1-1.2 0-2.3-0.3-3.4-0.7 0 0.6 0.1 1.2-0.1 1.7-0.1 0.5-0.5 1-1 1.2-0.7 0.2-1.4-0.1-1.9-0.7-0.4-0.6-0.6-1.3-0.8-2-0.3 0.5-0.5 1.1-0.8 1.7-0.3 0.5-0.8 1.1-1.4 1-0.7 0-1.2-0.7-1.4-1.3-0.2-0.7-0.4-1.4-0.8-1.9-0.3 0.6-0.8 1.2-1.3 1.7-0.4 0.3-0.9 0.5-1.3 0.3-0.5-0.2-0.6-1-0.7-1.6q-0.1-1.1-0.5-2.1c0-0.1-0.1-0.2-0.2-0.2-0.2-0.1-0.3 0.2-0.4 0.4-0.3 1-1.3 1.7-2.3 1.8-0.1 0-0.3 0-0.4-0.1q-0.1-0.1-0.2-0.3c-0.4-1.1-0.5-2.3-0.3-3.4 0.1-0.4 0.2-0.9 0.2-1.3 0-0.4-0.2-0.9-0.5-1.1 0 0-23.1-37.8-23.1-37.7-0.9-1.1-1-2.6-0.9-4 0-1.1 0-2.2 0.4-3.3 0.3-1 0.9-2 1.8-2.6z"/>
		<path class="s0" d="m214.8 161.7c4.3-2.9 9.3-4.7 14.5-5 1.2-0.1 2.4-0.2 3.6 0.2 1.2 0.3 2.3 1 2.9 2 0.4 0.7 0.5 1.4 0.7 2.1 0.9 3.8 1.7 7.8 1.3 11.8-0.2 1.5-0.6 3.1-1.9 3.8-1.4 0.9-3.2 0.3-4.4-0.8-1.2-1-1.9-2.5-2.8-3.8-3.1-4.9-8.4-8.3-13.9-10.3z"/>
		<path class="s0" d="m194.1 162.2c-0.8-5.1-0.1-10.4 1.8-15.1-1 0.4-2 0.2-3-0.2-0.9-0.4-1.8-1-2.7-1.3-1.9-0.8-4-0.7-6-0.2-2 0.5-3.8 1.5-5.5 2.7-7.1 4.9-12.1 12.6-14.4 21-0.8 2.9-1.3 6-0.4 8.8 0.2 0.7 0.5 1.4 1.1 1.9 0.6 0.4 1.4 0.5 2.2 0.5 2.3-0.3 4.2-1.8 6-3.3 3.2-3 6.1-6.3 9.5-9.1 3.3-2.8 7.3-5.2 11.4-5.7z"/>
		<path class="s2" d="m221.6 32.8c-0.6 1.1-1.6 1.7-2.3 1.4-0.7-0.4-0.8-1.5-0.2-2.6 0.6-1.1 1.6-1.8 2.3-1.4 0.6 0.3 0.8 1.5 0.2 2.6z"/>
		<path class="s2" d="m229.3 36.7c-0.6 1.1-1.6 1.7-2.3 1.4-0.6-0.4-0.8-1.5-0.2-2.6 0.6-1.1 1.6-1.8 2.3-1.4 0.7 0.3 0.8 1.5 0.2 2.6z"/>
		<path class="s2" d="m237 33.8q-0.2 0-0.4-0.2c-2.6-2.8-3.4-6.7-4.2-10.5q-0.1-0.3-0.1-0.5c-0.7 1.5-1 3.2-1.1 4.9 0 0.2-0.2 0.4-0.5 0.4-0.3 0-0.5-0.2-0.5-0.5 0.1-2.3 0.7-4.6 1.8-6.6 0.1-0.1 0.3-0.2 0.6-0.2 0.2 0 0.3 0.2 0.4 0.4q0.2 0.9 0.4 1.9c0.8 3.6 1.6 7.4 4 10.1 0.2 0.2 0.1 0.5-0.1 0.7q-0.1 0.1-0.3 0.1z"/>
		<path class="s2" d="m220.1 24.1q-3.4 0-6.2-1c-0.3-0.1-0.4-0.4-0.3-0.6 0.1-0.3 0.3-0.4 0.6-0.4 4.8 1.7 10.6 1.1 17.5-1.6 0.2-0.1 0.5 0.1 0.6 0.3 0.1 0.3 0 0.6-0.2 0.7q-6.6 2.6-12 2.6z"/>
		<path class="s2" d="m217.7 27.4c-1.3 0-2.6-0.4-3.5-1.1-0.3-0.1-0.3-0.4-0.1-0.7 0.1-0.2 0.4-0.2 0.7-0.1 1.6 1.2 3.8 1 5.4 0.4 1.9-0.7 3.4-2 5-3.2 0.2-0.2 0.5-0.2 0.7 0 0.2 0.2 0.1 0.6-0.1 0.7-1.6 1.4-3.2 2.7-5.3 3.5-0.9 0.3-1.9 0.5-2.8 0.5z"/>
		<path class="s2" d="m206.5 34q-0.2 0-0.4-0.2c-1-1.1-1.2-2.9-0.5-5.3 0.9-3.2 2.2-5.3 4-6.6q1.2-0.9 2.2-0.7c0.6 0.1 1.2 0.5 1.5 1.1 0.3 0.6 0.4 1.4 0.1 1.9-0.2 0.3-0.5 0.4-0.7 0.2-0.3-0.1-0.4-0.4-0.2-0.7 0.1-0.2 0.1-0.6-0.1-0.9-0.1-0.4-0.4-0.6-0.7-0.6q-0.7-0.1-1.5 0.5c-1.6 1.2-2.8 3.1-3.6 6.1-0.6 2-0.5 3.4 0.3 4.3 0.1 0.2 0.1 0.5-0.1 0.7q-0.1 0.2-0.3 0.2z"/>
		<path class="s2" d="m194.2 50.8q-0.2 0-0.3-0.1c-0.2-0.1-0.3-0.4-0.1-0.7 4.2-5.8 7.9-12.1 11.2-18.5 0.1-0.2 0.4-0.3 0.7-0.2 0.2 0.1 0.3 0.4 0.2 0.7-3.3 6.4-7.1 12.7-11.3 18.6q-0.2 0.2-0.4 0.2z"/>
		<path class="s2" d="m231.4 40.8q-0.2 0-0.3-0.1c-0.2-0.2-0.2-0.5-0.1-0.7 1.9-2.3 3.2-5 3.8-7.9 0.1-0.3 0.3-0.4 0.6-0.4 0.3 0.1 0.4 0.3 0.4 0.6-0.7 3-2.1 5.9-4 8.3q-0.2 0.2-0.4 0.2z"/>
		<path class="s2" d="m211.2 58.5c-1.2 0-2.3-0.3-3.2-0.9-0.2-0.2-0.2-0.5-0.1-0.7 0.2-0.2 0.5-0.3 0.7-0.1 1.1 0.8 2.6 0.9 4.2 0.5 1.5-0.4 2.9-1.5 3.9-2.3q2.2-1.8 4.1-4c0.1-0.3 0.5-0.3 0.7-0.1 0.2 0.2 0.2 0.5 0 0.7-1.2 1.5-2.6 2.9-4.2 4.2-1 0.9-2.5 1.9-4.2 2.4q-1 0.3-1.9 0.3z"/>
		<path class="s2" d="m206.2 54c-0.2 0-0.4-0.1-0.5-0.3-2.2-4.7-2-10.2-1.7-14.9 0-0.3 0.3-0.5 0.6-0.5 0.2 0.1 0.4 0.3 0.4 0.6-0.3 4.6-0.5 9.9 1.6 14.4 0.1 0.2 0 0.5-0.2 0.6q-0.1 0.1-0.2 0.1z"/>
		<path class="s2" d="m232.3 35q-0.1 0-0.2-0.1c-1.8-0.7-3.3-2.3-3.9-4.2-0.1-0.2 0-0.5 0.3-0.6 0.3-0.1 0.5 0 0.6 0.3 0.5 1.6 1.8 3 3.4 3.6 0.3 0.1 0.4 0.4 0.3 0.6-0.1 0.2-0.3 0.4-0.5 0.4z"/>
		<path class="s2" d="m224.1 29.2c-1.8 0-3.6-0.5-5-1.5-0.3-0.2-0.3-0.5-0.2-0.7 0.2-0.3 0.5-0.3 0.7-0.2 1.4 1 3 1.5 4.7 1.4 0.3 0 0.5 0.2 0.5 0.5 0 0.3-0.2 0.5-0.5 0.5q-0.1 0-0.2 0z"/>
		<path class="s2" d="m226.2 30.8q-0.1 0-0.2-0.1c-0.3-0.1-0.4-0.4-0.2-0.6l0.7-1.4c0.1-0.2 0.4-0.3 0.6-0.2 0.3 0.2 0.4 0.5 0.2 0.7l-0.6 1.3c-0.1 0.2-0.3 0.3-0.5 0.3z"/>
		<path class="s2" d="m223.2 47.3c-0.2 0-0.3 0-0.4-0.1l-5.7-7.3c-0.2-0.2-0.1-0.5 0.1-0.7 0.2-0.2 0.5-0.1 0.7 0.1l4.5 5.8c-0.3-3.6 0.3-7.4 1.8-10.7 0.1-0.2 0.4-0.3 0.7-0.2 0.2 0.1 0.3 0.4 0.2 0.6-1.6 3.7-2.2 8-1.4 12 0 0.2-0.1 0.4-0.3 0.5q-0.1 0.1-0.2 0z"/>
		<path class="s2" d="m220 50.8c-0.3 0-0.5-0.2-0.5-0.5-0.1-1.4 0.2-2.7 0.8-4 0.1-0.2 0.4-0.3 0.7-0.2 0.2 0.1 0.3 0.4 0.2 0.7-0.5 1.1-0.8 2.3-0.7 3.5 0 0.2-0.2 0.5-0.5 0.5q0 0 0 0z"/>
		<path class="s2" d="m224.9 41.5q-0.2 0-0.3-0.1c-0.2-0.2-0.2-0.5 0-0.7 1.1-1.2 2.8-1.9 4.5-1.7 0.2 0 0.5 0.3 0.4 0.5 0 0.3-0.3 0.5-0.5 0.5-1.4-0.1-2.8 0.4-3.7 1.3q-0.2 0.2-0.4 0.2z"/>
		<path class="s2" d="m216.2 47c-0.2 0-0.4-0.1-0.5-0.3-0.2-0.6-0.5-1.1-0.9-1.4-0.4-0.3-1-0.4-1.4-0.3-0.3 0.1-0.4 0.2-0.5 0.4-0.1 0.2-0.4 0.4-0.7 0.2-0.2-0.1-0.3-0.4-0.2-0.6 0.2-0.5 0.6-0.8 1.1-1 0.7-0.2 1.6 0 2.3 0.5 0.5 0.4 1 1.1 1.3 1.9 0 0.2-0.1 0.5-0.4 0.6q0 0-0.1 0z"/>
		<path class="s2" d="m198.7 53.9q-0.1 0-0.2-0.1c-0.2-0.1-0.3-0.4-0.2-0.7 0.8-1.4 0.7-3.1 0.7-4.9-0.1-1-0.1-2.1 0-3.1 0.3-2.3 1.4-4.5 2.4-6.4 0.1-0.2 0.4-0.3 0.6-0.3 0.3 0.1 0.4 0.4 0.4 0.6-0.3 1.6-0.1 3.3 0.1 5.2 0.3 2.2 0.6 4.5-0.2 6.7-0.1 0.2-0.4 0.4-0.6 0.3-0.3-0.1-0.4-0.4-0.3-0.7 0.7-1.9 0.4-4 0.1-6.2-0.1-1-0.2-2-0.3-3-0.6 1.3-1 2.6-1.2 4-0.1 0.9-0.1 1.9 0 2.9 0 1.8 0.1 3.7-0.8 5.4-0.1 0.2-0.3 0.3-0.5 0.3z"/>
		<path fill-rule="evenodd" class="s2" d="m262.9 109c-0.2 0-0.4-0.1-0.5-0.3l-18.2-48.9c-0.8-2.2-1.6-4.4-2.3-6.6-0.4-1.3-0.5-2.5-0.6-3.5q0-0.5-0.1-1-0.3-2.4-1.4-3.4 0-0.1 0-0.1c-0.6-0.2-1.7-0.8-3.8-2l-3.8-2.1c-0.7 0-1.5 0.1-2.1 0.5-0.4 0.6-1.5 1.9-3.7 4.7-1.9 2.3-3.8 4.7-3.8 4.7-0.3 0.5-0.2 1.2-0.1 1.5 0.5 1.8 2 3.3 3.7 3.6q0.1 0 0.2 0.1c0.5 0.2 0.7 0.2 0.7 0.1 0.1 0 0.1-0.2 0.1-0.3-0.1-0.2-0.2-0.4-0.4-0.7v-0.1c-0.8-1.2-1.3-2.6-1.5-4q0-0.2 0.1-0.4 0.2-0.2 0.4-0.2c1.3 0.1 2.7-0.6 3.3-1.7q0.1-0.2 0.2-0.4c0.1-0.2 0.4-0.3 0.6-0.2 0.3 0.1 0.4 0.4 0.3 0.7q-0.1 0.1-0.2 0.3c-0.8 1.7-1.2 3.6-1 5.6 0.1 0.7 0.3 2.5 1.6 3q0.2 0.1 0.3 0.3l12.5 44c0.1 0.3-0.1 0.5-0.3 0.6-0.3 0.1-0.6-0.1-0.7-0.3l-12.4-43.8c-0.9-0.4-1.5-1.3-1.8-2.5 0 0.4-0.2 0.7-0.5 1-0.6 0.4-1.4 0.1-1.7-0.1-2.1-0.5-3.9-2.2-4.4-4.3-0.3-1-0.2-1.8 0.3-2.4 2.8-3.6 7.2-9 7.5-9.5q0.1-0.1 0.2-0.1c0.8-0.5 1.8-0.7 2.8-0.6q0.1 0 0.2 0c2.9 1.6 7.4 4.1 7.8 4.3q0 0 0 0 0.1 0 0.1 0.1c0.9 0.8 1.5 2.1 1.7 4q0.1 0.5 0.1 1c0.1 1 0.2 2.1 0.6 3.3 0.6 2.2 1.4 4.4 2.3 6.5l18.1 49c0.1 0.2 0 0.5-0.2 0.6q-0.1 0-0.2 0zm-36.5-57.4c0.2 1.1 0.6 2.2 1.2 3.1l0.1 0.1q0.2 0.2 0.3 0.6 0-0.2 0-0.5c-0.1-1.3 0-2.6 0.3-3.9-0.6 0.4-1.2 0.6-1.9 0.6z"/>
		<path class="s2" d="m205.4 64.8q-0.6 0-1.3-0.1c-4.1-0.2-7.3-1.4-9.7-3.4-2.6-2.4-4-6.1-3.6-9.6 0.1-0.3 0.3-0.5 0.6-0.4 0.3 0 0.5 0.2 0.4 0.5-0.4 3.2 0.9 6.6 3.3 8.7 2.1 1.9 5.2 3 9 3.2 2.8 0.2 6.6-0.1 9.4-2.3 0.2-0.2 0.5-0.1 0.7 0.1 0.2 0.2 0.1 0.5-0.1 0.7-2.1 1.7-5.1 2.6-8.7 2.6z"/>
		<path class="s2" d="m267.6 117.3q0 0-0.1 0c-0.3-0.1-0.4-0.4-0.3-0.6 1-3.9 0.8-8.4-0.8-13.2-1.4-4.2-3.6-8.2-5.8-12-1.2-0.3-2.3 0-3.2 0.7-0.2 0.2-0.5 0.1-0.7-0.1-0.2-0.2-0.1-0.5 0.1-0.7q1.8-1.4 4.3-0.8 0.2 0 0.3 0.2c2.2 4 4.5 8 5.9 12.4 1.7 5 1.9 9.7 0.8 13.7 0 0.3-0.2 0.4-0.5 0.4z"/>
		<path class="s2" d="m252.6 119.3q-0.1 0-0.1 0c-2.4-0.7-4.1-2.5-5-3.9-1.2-1.7-1.9-3.6-2.7-5.5v-0.1c-3.2-8-6.6-16-10.3-23.7-0.1-0.3 0-0.6 0.3-0.7 0.2-0.1 0.5 0 0.6 0.3 3.7 7.7 7.1 15.7 10.3 23.7l0.1 0.2c0.7 1.8 1.4 3.6 2.5 5.2 0.9 1.3 2.3 2.9 4.4 3.5 0.3 0.1 0.5 0.3 0.4 0.6-0.1 0.2-0.3 0.4-0.5 0.4z"/>
		<path fill-rule="evenodd" class="s2" d="m163.3 67.6q-0.3 0-0.5-0.2c-0.1-0.2-0.1-0.5 0.2-0.7 1.8-1.2 4-2 6.2-2.2 0.6-0.1 0.9 0.2 1 0.4 0.1 0.2 0 0.5-0.2 0.7-0.2 0.1-0.4 0-0.6-0.1q0 0-0.1 0c-2 0.2-4.1 0.9-5.8 2.1q-0.1 0-0.3 0zm6.1-2.3z"/>
		<path class="s2" d="m148.4 114.9q-0.3 0-0.4-0.2l-24-38.4c-1.5-3.1-1.2-7 0.8-9.7h0.1c0.4-0.4 1.6-1.5 4.8-4.3l4.8-4.2c0.2-0.2 0.6-0.2 0.7 0 0.2 0.3 0.2 0.6 0 0.8-3.7 3.1-9.1 7.9-9.6 8.3-1.8 2.5-2.1 5.9-0.8 8.7l24 38.3c0.1 0.2 0.1 0.5-0.2 0.7q-0.1 0-0.2 0z"/>
		<path class="s2" d="m159.4 113c-0.2 0-0.4-0.1-0.5-0.3 0 0-4.3-9.7-8.6-19.5-6.1-14.1-7.9-18.2-8.3-19.5-1.6-1.9-4.3-2.9-6.7-2.3-0.3 0-0.6-0.2-0.6-0.4-0.1-0.3 0.1-0.6 0.4-0.6 2.8-0.6 5.8 0.5 7.6 2.7q0.1 0.1 0.1 0.2c0.5 1.4 12.4 28.6 17 39 0.2 0.3 0 0.6-0.2 0.7q-0.1 0-0.2 0z"/>
		<path class="s2" d="m142.6 73.1c-0.1 0-0.3-0.1-0.4-0.3-0.1-0.2-0.1-0.5 0.2-0.6l4.2-2.4c0.3-0.2 0.6-0.1 0.7 0.2 0.1 0.2 0.1 0.5-0.2 0.7l-4.2 2.3q-0.1 0.1-0.3 0.1z"/>
		<path fill-rule="evenodd" class="s2" d="m157.6 123.7c-0.7 0-1.3-0.6-1.7-1.7q-0.2-0.8-0.4-1.5c-0.3 0.6-0.8 1.1-1.3 1.5-0.7 0.5-1.4 0.5-1.9 0.1-0.2-0.3-0.3-0.6-0.4-0.8l-0.5-2.5q-0.4 0.7-1.1 1.2c-0.3 0.4-1 0.7-1.6 0.7q-0.5-0.1-0.9-0.5c-0.2-0.4-0.3-0.8-0.3-1.1 0-1.5-0.1-3 3-5.9q0.1-0.1 0.2-0.1c2.7-0.6 5.4-0.9 8.1-1.1 1.2-0.1 2.5-0.1 3.3 0.7 0.6 0.5 0.9 1.3 1.2 1.9 0.6 2.2 0.9 4.4 0.7 6.7-0.2 1.6-0.8 2.1-1.4 2.3-0.9 0.3-1.8-0.4-2.2-1.1-0.3-0.6-0.4-1.1-0.5-1.7v-0.1c-0.2 0.7-0.5 1.5-0.9 2.1-0.2 0.3-0.6 0.8-1.1 0.9q-0.1 0-0.3 0zm-2.1-6c0.2 0 0.4 0.2 0.5 0.4q0.4 1.8 0.9 3.6c0.1 0.5 0.5 1.1 0.8 1q0.2 0 0.5-0.4c0.7-1.1 1-2.4 0.7-3.7 0-0.2 0.1-0.4 0.3-0.5 0.1-0.1 0.4-0.1 0.5 0 0.8 0.6 1 1.5 1.1 2.1l0.1 0.4c0.1 0.6 0.2 1 0.4 1.4 0.2 0.4 0.6 0.8 1 0.6 0.5-0.1 0.7-0.9 0.7-1.4 0.2-2.1 0-4.3-0.7-6.2-0.1-0.6-0.4-1.2-0.8-1.5-0.6-0.6-1.7-0.6-2.6-0.5-2.6 0.2-5.2 0.5-7.8 1.1-2.6 2.4-2.6 3.7-2.5 5 0 0.2 0 0.4 0.1 0.5q0 0.1 0.1 0.1c0.3 0 0.6-0.2 0.9-0.4 0.7-0.6 1.2-1.4 1.5-2.2 0-0.2 0.3-0.4 0.5-0.4 0.2 0 0.4 0.2 0.4 0.4l0.9 4c0 0.1 0 0.2 0.1 0.3 0 0 0.3 0 0.5-0.2 0.9-0.6 1.5-1.8 1.4-2.9 0-0.3 0.2-0.5 0.4-0.6q0 0 0.1 0z"/>
		<path class="s2" d="m167 121q0 0-0.1 0c-0.2-0.1-0.4-0.4-0.3-0.6 0.1-0.5-0.1-1.1-0.4-1.5-0.2-0.2-0.5-0.3-0.8-0.5q-0.2-0.2-0.3-0.3c-0.8-0.5-1.4-1.3-1.8-2.1-0.2-0.3-0.1-0.6 0.2-0.7 0.2-0.1 0.5 0 0.7 0.2 0.3 0.7 0.8 1.3 1.4 1.8q0.2 0.1 0.4 0.2c0.3 0.2 0.6 0.4 0.9 0.7 0.6 0.7 0.8 1.5 0.6 2.4 0 0.2-0.2 0.4-0.5 0.4z"/>
		<path class="s2" d="m147.1 75.7q-0.3-0.1-0.6-0.1c-0.8-0.3-1.5-0.8-2.1-1.2-0.2-0.2-0.2-0.5 0-0.7 0.1-0.3 0.5-0.3 0.7-0.1 0.5 0.4 1 0.8 1.6 1 0.5 0.1 1.1 0 1.4-0.4 0.2-0.3 0.2-0.7 0.1-1.1-0.3-2.3-1.7-4.3-3-6-2.9-3.6-6.3-6.7-10.1-9.2-0.2-0.1-0.3-0.4-0.2-0.6 0.2-0.3 0.5-0.3 0.7-0.2 4 2.6 7.4 5.7 10.4 9.3 1.3 1.7 2.9 4 3.2 6.6 0.1 0.5 0.1 1.2-0.3 1.8-0.4 0.6-1.1 0.9-1.8 0.9z"/>
		<path class="s2" d="m234.1 85.4q-0.1 0-0.1 0c-0.3-0.1-0.5-0.4-0.4-0.6 0.7-2.6 0.9-5.3 0.5-7.9-0.1-0.3 0.1-0.6 0.4-0.6 0.2 0 0.5 0.1 0.5 0.4 0.5 2.8 0.3 5.6-0.4 8.3-0.1 0.2-0.3 0.4-0.5 0.4z"/>
		<path class="s2" d="m192 119.6q-0.2 0-0.4-0.1c-0.2-0.2-0.2-0.5 0-0.7 0.7-0.8 1.5-1.4 2.3-2q0.5-0.3 1.1-0.7c0.8-0.7 1.9-1.7 1.9-3 0-0.4-0.1-0.8-0.2-1.2-0.1-0.6-0.2-1.1-0.1-1.8 0.2-1.6 1.7-2.5 3.1-3.3 4.9-2.5 10-5 15.1-7.3 0.2-0.1 0.5 0 0.7 0.3 0.1 0.2 0 0.5-0.3 0.6-5 2.3-10.1 4.8-15 7.3-1.3 0.7-2.5 1.4-2.6 2.6-0.1 0.4 0 0.9 0.1 1.4 0.1 0.4 0.2 0.9 0.2 1.4 0 1.7-1.3 3-2.3 3.8q-0.6 0.4-1.1 0.8c-0.8 0.5-1.6 1-2.1 1.7q-0.2 0.2-0.4 0.2z"/>
		<path class="s2" d="m193.5 125c-0.3 0-0.4-0.1-0.5-0.3-0.1-0.3 0.1-0.6 0.3-0.6 4.3-1.3 8.3-2.8 10.4-6.1q0.4-0.7 0.8-1.5c0.3-0.6 0.7-1.3 1.1-1.9 1.2-1.7 3.1-2.9 5.2-3.3 0.3 0 0.5 0.2 0.6 0.5 0 0.2-0.2 0.5-0.4 0.5-1.8 0.3-3.5 1.4-4.6 2.9-0.4 0.5-0.7 1.1-1 1.8-0.3 0.5-0.6 1-0.9 1.6-2.3 3.6-6.5 5.1-10.9 6.4q-0.1 0-0.1 0z"/>
		<path class="s2" d="m248.4 43.9q-0.2 0-0.4-0.2c-4.4-5-6.8-11.7-6.6-18.4 0-0.3 0.2-0.5 0.5-0.5 0.3 0 0.5 0.2 0.5 0.5-0.2 6.4 2.1 12.9 6.4 17.8 0.1 0.2 0.1 0.5-0.1 0.7q-0.1 0.1-0.3 0.1z"/>
		<path class="s2" d="m194.6 36.2q-0.1 0-0.2 0c-0.2-0.1-0.4-0.4-0.3-0.7 1.9-6.4 5.4-12.3 10.1-17 0.2-0.2 0.5-0.2 0.7 0 0.2 0.2 0.2 0.5 0 0.7-4.6 4.6-8 10.3-9.9 16.6 0 0.2-0.2 0.4-0.4 0.4z"/>
		<path class="s2" d="m217.3 138.1c-0.2 0-0.4-0.1-0.5-0.3-0.1-0.2 0-0.5 0.2-0.7 16.4-8.1 34.7-12.5 53-12.5 0.2 0 0.5 0.2 0.5 0.5 0 0.3-0.3 0.5-0.5 0.5-18.2 0-36.3 4.3-52.5 12.4q-0.1 0.1-0.2 0.1z"/>
		<path class="s2" d="m176 143.7q-0.1 0-0.3-0.1c-11.9-9.9-26.9-15.8-42.3-16.7-0.3 0-0.5-0.3-0.5-0.6 0.1-0.2 0.3-0.4 0.6-0.4 15.6 0.9 30.8 6.9 42.9 16.9 0.2 0.2 0.2 0.5 0 0.7q-0.1 0.2-0.4 0.2z"/>
		<path class="s2" d="m203.6 137.3q-0.1 0-0.2 0c-12.3-6.9-25.4-12.5-39-16.6-0.2 0-0.4-0.3-0.3-0.6 0.1-0.2 0.4-0.4 0.6-0.3 13.6 4.1 26.8 9.7 39.2 16.6 0.2 0.1 0.3 0.4 0.2 0.7-0.1 0.1-0.3 0.2-0.5 0.2z"/>
		<path class="s2" d="m244 167c-0.5 0-1-0.1-1.4-0.2-0.6-0.1-1.1-0.2-1.6-0.1-0.3 0-0.5-0.2-0.6-0.5 0-0.2 0.2-0.5 0.4-0.5 0.7-0.1 1.3 0 2 0.1 0.6 0.2 1.2 0.3 1.7 0.1 0.6-0.1 1.1-0.6 1.6-1.1 0.5-0.5 0.9-1 1.6-1.3 4.3-1.9 9.4-3.1 14.7-4.4q2.7-0.6 5.3-1.3c15.2-3.9 26.4-9.6 34.3-17.5 1.5-1.6 3.2-3.5 3.9-5.8 1.1-4-1.1-8.2-3.8-10.6-3.3-2.8-7.6-4-11-4.8-5.9-1.3-12-1.8-18-1.5-22.5 1.2-44.7 7.3-64.3 17.6-4.2 2.2-7.5 4.3-10.1 7.1-0.2 0.2-0.5 0.2-0.7 0-0.2-0.2-0.2-0.5 0-0.7 2.7-2.9 6.1-5 10.3-7.2 19.7-10.5 42.1-16.6 64.7-17.8 6.1-0.3 12.3 0.2 18.3 1.5 3.5 0.8 8 2.1 11.4 5.1 3 2.5 5.4 7.1 4.1 11.6-0.7 2.5-2.5 4.5-4.1 6.2-8 8-19.3 13.8-34.7 17.8q-2.7 0.7-5.3 1.3c-5.3 1.3-10.3 2.5-14.6 4.3-0.5 0.3-0.9 0.7-1.3 1.1-0.6 0.6-1.2 1.2-2 1.4q-0.4 0.1-0.8 0.1z"/>
		<path class="s2" d="m240.7 164.4q-0.1 0-0.2-0.1c-1.3-0.8-2.2-2-3.1-3.1-0.9-1.2-1.8-2.4-3-3.1-1.4-0.7-2.9-0.8-4.3-0.8-6.4 0.1-12.7 2.4-17.7 6.4-0.2 0.2-0.6 0.2-0.7 0-0.2-0.2-0.2-0.6 0-0.7 5.2-4.3 11.7-6.6 18.4-6.7 1.5 0 3.2 0.1 4.7 0.9 1.5 0.8 2.5 2.1 3.4 3.4 0.9 1.1 1.7 2.1 2.8 2.8 0.2 0.2 0.3 0.5 0.1 0.7q-0.1 0.3-0.4 0.3z"/>
		<path class="s2" d="m234.6 177.7c-1 0-2.1-0.5-2.8-1.1-1-0.7-1.7-1.7-2.4-2.6l-0.2-0.4c-2.8-3.9-7.6-9-14.1-11-0.2-0.1-0.4-0.4-0.3-0.6 0.1-0.3 0.4-0.5 0.6-0.4 5.4 1.7 10.4 5.6 14.6 11.4l0.2 0.4c0.7 0.9 1.3 1.8 2.2 2.5 0.8 0.6 2 1.1 3.1 0.6 1.8-0.7 2-3.2 2-4.7 0-3.6-0.5-7.2-1.7-10.7 0-0.2 0.1-0.5 0.4-0.6 0.2-0.1 0.5 0.1 0.6 0.3 1.1 3.6 1.7 7.3 1.7 11 0 2.1-0.4 4.8-2.6 5.7q-0.6 0.2-1.3 0.2z"/>
		<path class="s2" d="m250.6 160.3c-1.8 0-3.8-0.1-5.5-1.1-1.1-0.6-2-1.5-2.9-2.3-0.9-0.9-1.7-1.7-2.7-2.3-1.6-0.8-3.5-0.9-5.3-0.9-4.2 0.1-8.3 0.6-12.2 1.7-0.3 0-0.6-0.1-0.6-0.4-0.1-0.3 0.1-0.5 0.3-0.6 4.1-1.1 8.3-1.6 12.4-1.7 2 0 4.1 0.1 5.8 1 1.2 0.7 2.1 1.6 3 2.5 0.9 0.8 1.7 1.6 2.7 2.2 1.8 0.9 3.9 1 5.8 0.9 3.8 0 7.6-0.5 11.3-1.2 0.2 0 0.5 0.1 0.6 0.4 0 0.3-0.1 0.5-0.4 0.6-3.8 0.7-7.6 1.1-11.4 1.2q-0.5 0-0.9 0z"/>
		<path class="s2" d="m194.2 163.1c-0.2 0-0.4-0.1-0.5-0.4-0.8-6.5 0.4-13.3 3.3-19.1 0.1-0.3 0.4-0.4 0.6-0.3 0.3 0.2 0.4 0.5 0.3 0.7-2.9 5.7-4 12.3-3.2 18.6 0.1 0.2-0.1 0.5-0.4 0.5q0 0-0.1 0z"/>
		<path class="s2" d="m166.9 180.5q-0.9 0-1.6-0.3c-1.7-0.8-2.6-3-2.3-6 0.7-7.9 4.7-16 11.4-22.9 2.7-2.8 4.9-4.6 7.4-5.6 3.1-1.5 6.5-1.6 9.2-0.5q0.6 0.2 1.2 0.5c1 0.5 2 1 3.1 0.9 0.2 0 0.5 0.2 0.5 0.4 0.1 0.3-0.1 0.6-0.4 0.6-1.3 0.2-2.5-0.4-3.7-1q-0.5-0.3-1-0.5c-2.5-1-5.6-0.8-8.5 0.5-2.3 1-4.5 2.7-7.1 5.3-6.5 6.8-10.4 14.8-11.1 22.4-0.1 1.2-0.1 4.1 1.7 5q0.9 0.4 2.1 0.1c2-0.4 3.7-1.8 5.3-3.3q1.5-1.3 2.9-2.7c2-1.9 4-3.8 6.2-5.6 3.8-3 7.4-4.9 10.9-5.7 0.3-0.1 0.6 0.1 0.6 0.4 0.1 0.3-0.1 0.5-0.3 0.6-3.5 0.8-6.9 2.6-10.6 5.5-2.2 1.7-4.2 3.7-6.1 5.5q-1.5 1.4-2.9 2.8c-1.6 1.4-3.5 3-5.8 3.5q-0.6 0.1-1.1 0.1z"/>
		<path class="s2" d="m160.3 170.6q0 0 0 0c-11-1.3-21.2-6.2-27.9-9.8-12.3-6.6-21-13.3-27.2-21.1-1.7-2.1-3.8-5.1-4.7-8.6-1-3.5-0.5-7.2 1.4-9.7 0.8-1.2 2-2.3 3.7-3.3 6.5-4.1 14.7-4.5 21.1-4.4 7.1 0.1 14.3 0.9 21.4 2.2 0.3 0.1 0.4 0.3 0.4 0.6-0.1 0.3-0.3 0.5-0.6 0.4-7-1.3-14.1-2.1-21.2-2.2-6.3-0.1-14.3 0.3-20.6 4.2-1.5 1-2.7 2-3.4 3.1-1.7 2.3-2.1 5.6-1.3 8.9 0.7 2.6 2.1 5.1 4.6 8.2 6.1 7.7 14.7 14.3 26.8 20.8 6.7 3.6 16.8 8.4 27.6 9.7 0.3 0 0.5 0.3 0.5 0.5-0.1 0.3-0.3 0.5-0.6 0.5z"/>
	</g>
</svg>